<?xml version="1.0" encoding="UTF-8"?>
<svg version="1.1" viewBox="0 0 512 512" xmlns="http://www.w3.org/2000/svg">
 <path d="m227.42 52.082c15-28.48 55.762-28.48 70.758 0l0.69922 1.3203c10.102 19.18 33.641 26.82 53.078 17.238l1.3203-0.66016c28.879-14.238 61.879 9.7578 57.262 41.621l-0.21875 1.4609c-3.1016 21.441 11.441 41.461 32.801 45.141l1.4609 0.26172c31.719 5.4414 44.34 44.238 21.879 67.301l-1.0391 1.0586c-15.121 15.52-15.121 40.301 0 55.816l1.0391 1.0391c22.461 23.059 9.8594 61.859-21.879 67.316l-1.4609 0.26172c-21.359 3.6797-35.898 23.68-32.801 45.141l0.21875 1.4609c4.6211 31.859-28.379 55.84-57.262 41.602l-1.3203-0.64063c-19.441-9.5781-42.98-1.9414-53.078 17.238l-0.69922 1.3008c-14.98 28.5-55.762 28.5-70.758 0l-0.69922-1.3008c-10.102-19.18-33.641-26.82-53.078-17.238l-1.3203 0.64063c-28.879 14.238-61.879-9.7383-57.262-41.602l0.21875-1.4609c3.1211-21.461-11.441-41.461-32.801-45.141l-1.4609-0.26172c-31.719-5.4609-44.34-44.262-21.879-67.316l1.0391-1.0391c15.121-15.52 15.121-40.301 0-55.816l-1.0391-1.0586c-22.461-23.059-9.8398-61.859 21.879-67.301l1.4609-0.26172c21.359-3.6797 35.898-23.699 32.801-45.141l-0.21875-1.4609c-4.6211-31.859 28.379-55.859 57.262-41.621l1.3203 0.66016c19.441 9.5781 42.98 1.9414 53.078-17.238zm131.08 127.32c-7.8398-7.1406-19.719-7.0391-27.441-0.10156l-1.5 1.4805-87.961 96.742-36-36-1.5586-1.3984c-8.0391-6.5586-19.898-6.1016-27.398 1.3984s-7.9609 19.359-1.3984 27.398l1.3984 1.5586 51.199 51.199c3.9609 3.9609 9.3594 6.1211 14.961 6 5.6016-0.14063 10.922-2.5586 14.68-6.6992l102.4-112.64 1.3203-1.6211c6.1797-8.3398 5.1602-20.18-2.6992-27.32z" fill-rule="evenodd"/>
</svg>
