<?xml version="1.0" encoding="UTF-8"?>
<svg version="1.1" viewBox="0 0 512 512" xmlns="http://www.w3.org/2000/svg">
 <path d="m415.59 7.6797h-319.17c-0.67969 0-1.332 0.26953-1.8125 0.75-0.48047 0.48047-0.75 1.1328-0.75 1.8086v491.52c0 0.67578 0.26953 1.3281 0.75 1.8086 0.48047 0.48047 1.1328 0.75 1.8125 0.75h319.17c0.67969 0 1.332-0.26953 1.8125-0.75 0.48047-0.48047 0.75-1.1328 0.75-1.8086v-491.52c0-0.67578-0.26953-1.3281-0.75-1.8086-0.48047-0.48047-1.1328-0.75-1.8125-0.75zm-2.5586 23.254c-4.6094-0.57031-8.8984-2.6641-12.184-5.9492s-5.3789-7.5742-5.9492-12.184h18.133zm-114.5 468.27h-85.055v-28.098h85.055zm2.5586-33.219h-90.172c-0.67969 0-1.332 0.26953-1.8125 0.75-0.48047 0.48047-0.75 1.1289-0.75 1.8086v30.66h-24.973v-70.121h145.24v70.121h-24.973v-30.66c0-0.67969-0.26953-1.3281-0.75-1.8086-0.48047-0.48047-1.1328-0.75-1.8125-0.75zm-74.867-42.023c7.0547-9.3359 18.078-14.828 29.781-14.828s22.727 5.4922 29.781 14.828zm104.96 0h-39.25c-7.7305-12.406-21.316-19.945-35.934-19.945s-28.203 7.5391-35.934 19.945h-39.25c-0.67969 0-1.3281 0.26953-1.8086 0.75-0.48047 0.48047-0.75 1.1328-0.75 1.8086v72.684h-56.031c-0.58984-5.9648-3.2305-11.543-7.4688-15.781-4.2422-4.2422-9.8203-6.8828-15.785-7.4727v-217.01h100.13c1.0195 19.629 12.082 37.344 29.27 46.875s38.07 9.5312 55.258 0 28.25-27.246 29.27-46.875h100.13v217.01c-5.9648 0.58984-11.543 3.2305-15.785 7.4727-4.2383 4.2383-6.8789 9.8164-7.4688 15.781h-56.031v-72.684c0-0.67578-0.26953-1.3281-0.75-1.8086-0.48047-0.48047-1.1289-0.75-1.8086-0.75zm-72.277-170.14v0.003906c-0.72266-0.85938-1.7852-1.3516-2.9062-1.3516s-2.1836 0.49219-2.9062 1.3516h-48.922c0.70312-18.039 10.734-34.41 26.48-43.234 15.746-8.8203 34.949-8.8203 50.695 0 15.746 8.8242 25.777 25.195 26.48 43.234zm-5.8086 5.1211h-0.003906c0.72266 0.85938 1.7852 1.3516 2.9062 1.3516s2.1836-0.49219 2.9062-1.3516h48.871c-1.0195 17.797-11.105 33.82-26.707 42.438-15.602 8.6133-34.539 8.6133-50.141 0-15.605-8.6172-25.688-24.641-26.707-42.438zm59.852-5.1211-0.003907 0.003906c-0.70312-19.867-11.707-37.934-29.039-47.668-17.332-9.7344-38.48-9.7344-55.812 0-17.332 9.7344-28.336 27.801-29.039 47.668h-100.08v-217.76c5.9648-0.58984 11.543-3.2305 15.785-7.4727 4.2383-4.2383 6.8789-9.8164 7.4688-15.781h56.031v72.48c0 0.67969 0.26953 1.332 0.75 1.8125 0.48047 0.48047 1.1289 0.75 1.8086 0.75h39.25c7.7305 12.402 21.316 19.945 35.934 19.945s28.203-7.543 35.934-19.945h39.25c0.67969 0 1.3281-0.26953 1.8086-0.75 0.48047-0.48047 0.75-1.1328 0.75-1.8125v-72.48h56.031c0.58984 5.9648 3.2305 11.543 7.4688 15.781 4.2422 4.2422 9.8203 6.8828 15.785 7.4727v217.76zm-99.477-241.01h85.055v27.898h-85.055zm-2.5586 33.016h90.176-0.003906c0.67969 0 1.332-0.26953 1.8125-0.75 0.48047-0.47656 0.75-1.1289 0.75-1.8086v-30.457h24.977l-0.003906 69.922h-145.24v-69.922h24.977l-0.003907 30.457c0 0.67969 0.26953 1.332 0.75 1.8086 0.48047 0.48047 1.1328 0.75 1.8125 0.75zm74.867 42.023v0.003906c-7.0547 9.3359-18.078 14.824-29.781 14.824s-22.727-5.4883-29.781-14.824zm-168.68-75.039c-0.57031 4.6094-2.6641 8.8984-5.9492 12.184s-7.5742 5.3789-12.184 5.9492v-18.133zm-18.133 468.27c4.6094 0.57031 8.8984 2.6641 12.184 5.9492s5.3789 7.5742 5.9492 12.184h-18.133zm295.92 18.133c0.57031-4.6094 2.6641-8.8984 5.9492-12.184s7.5742-5.3789 12.184-5.9492v18.133z"/>
 <path d="m256 68.18c1.582 0 3.0078-0.95313 3.6133-2.4141s0.26953-3.1445-0.84766-4.2617c-1.1172-1.1172-2.8008-1.4531-4.2617-0.84766-1.4609 0.60547-2.4141 2.0312-2.4141 3.6133 0 1.0391 0.41016 2.0312 1.1445 2.7656s1.7266 1.1445 2.7656 1.1445z"/>
 <path d="m256 443.62c-1.582 0-3.0078 0.95312-3.6133 2.4141s-0.26953 3.1445 0.84766 4.2656c1.1172 1.1172 2.8008 1.4531 4.2617 0.84766 1.4609-0.60547 2.4141-2.0352 2.4141-3.6172 0-2.1602-1.75-3.9102-3.9102-3.9102z"/>
</svg>
