<?xml version="1.0" encoding="UTF-8"?>
<svg width="512pt" height="512pt" version="1.1" viewBox="0 0 512 512" xmlns="http://www.w3.org/2000/svg">
 <path d="m439.01 512h-366.02c-2.9453 0-5.3359-2.3867-5.3359-5.332v-501.34c0-2.9453 2.3906-5.332 5.3359-5.332h366.02c1.418 0 2.7734 0.5625 3.7734 1.5625s1.5625 2.3555 1.5625 3.7695v501.34c0 1.4141-0.5625 2.7695-1.5625 3.7695s-2.3555 1.5625-3.7734 1.5625zm-360.69-10.668h355.36v-490.66h-355.36z" fill="#fff"/>
 <path d="m372.45 75.945h-232.85c-2.9453 0-5.3359-2.3867-5.3359-5.332v-65.281c0-2.9453 2.3906-5.332 5.3359-5.332h232.85c1.4141 0 2.7695 0.5625 3.7695 1.5625 1.0039 1 1.5625 2.3555 1.5625 3.7695v65.281c0 1.4141-0.55859 2.7695-1.5625 3.7695-1 1-2.3555 1.5625-3.7695 1.5625zm-227.52-10.668 222.19 0.003906v-54.613h-222.19z" fill="#fff"/>
 <path d="m372.45 512h-232.85c-2.9453 0-5.3359-2.3867-5.3359-5.332v-65.281c0-2.9453 2.3906-5.332 5.3359-5.332h232.85c1.4141 0 2.7695 0.5625 3.7695 1.5625 1.0039 1 1.5625 2.3555 1.5625 3.7695v65.281c0 1.4141-0.55859 2.7695-1.5625 3.7695-1 1-2.3555 1.5625-3.7695 1.5625zm-227.52-10.668h222.19v-54.613h-222.19z" fill="#fff"/>
 <path d="m256.03 127.2c-15.004-0.011719-29.391-5.9805-39.996-16.59-10.609-10.609-16.578-24.992-16.59-39.996 0-2.9453 2.3867-5.332 5.332-5.332 2.9453 0 5.332 2.3867 5.332 5.332 0 16.406 8.7539 31.566 22.961 39.77 14.207 8.2031 31.711 8.2031 45.922 0 14.207-8.2031 22.957-23.363 22.957-39.77 0-2.9453 2.3906-5.332 5.3359-5.332s5.332 2.3867 5.332 5.332c-0.015625 15.004-5.9805 29.387-16.59 39.996-10.609 10.609-24.992 16.578-39.996 16.59z" fill="#fff"/>
 <path d="m307.28 446.72c-2.9453 0-5.3359-2.3867-5.3359-5.332 0-16.406-8.75-31.566-22.957-39.77-14.211-8.2031-31.715-8.2031-45.922 0-14.207 8.2031-22.961 23.363-22.961 39.77 0 2.9453-2.3867 5.332-5.332 5.332-2.9453 0-5.332-2.3867-5.332-5.332 0-20.215 10.785-38.898 28.293-49.004 17.508-10.109 39.078-10.109 56.586 0 17.508 10.105 28.293 28.789 28.293 49.004 0 1.4141-0.5625 2.7695-1.5625 3.7695s-2.3555 1.5625-3.7695 1.5625z" fill="#fff"/>
 <path d="m439.01 261.33h-366.02c-2.9453 0-5.3359-2.3867-5.3359-5.332s2.3906-5.332 5.3359-5.332h366.02c2.9453 0 5.3359 2.3867 5.3359 5.332s-2.3906 5.332-5.3359 5.332z" fill="#fff"/>
 <path d="m256.03 320.75c-17.172 0-33.641-6.8203-45.785-18.965-12.141-12.141-18.961-28.609-18.961-45.781s6.8203-33.641 18.961-45.781c12.145-12.145 28.613-18.965 45.785-18.965s33.641 6.8203 45.781 18.965c12.145 12.141 18.965 28.609 18.965 45.781-0.027344 17.164-6.8594 33.617-18.996 45.75-12.137 12.137-28.586 18.969-45.75 18.996zm0-118.83v0.003906c-14.344 0-28.098 5.6953-38.242 15.836-10.141 10.145-15.84 23.898-15.84 38.242s5.6992 28.098 15.84 38.242c10.145 10.141 23.898 15.836 38.242 15.836s28.098-5.6953 38.238-15.836c10.145-10.145 15.84-23.898 15.84-38.242-0.011719-14.34-5.7148-28.086-15.855-38.227-10.137-10.137-23.883-15.84-38.223-15.852z" fill="#fff"/>
</svg>
