<?xml version="1.0" encoding="UTF-8"?>
<svg version="1.1" viewBox="0 0 512 512" xmlns="http://www.w3.org/2000/svg">
 <path d="m406.15 189.51c-1.8086-13.617-2.9727-20.836-3.4844-21.656-0.49219-2.0703-1.1641-4.5391-2.0078-7.3906-0.73438-4.3828-1.2734-7.3438-1.3555-7.8906-0.28906-1.9727-0.82031-3.9023-1.5273-5.8125-0.70703-1.9102-1.3164-3.8906-2.1094-5.8438-0.59766-1.4688-1.2969-2.9688-2.8008-5.6992-0.26562-0.70703-0.85156-1.7461-1.7539-3.1133-0.007813-0.011718-0.011719-0.019531-0.015625-0.03125-2.8047-4.8828-6.3398-9.4453-10.395-13.781-2.3047-2.4609-4.7695-4.8672-7.4609-7.1406 0.24609 0.19141 0.38281 0.27344 0.41797 0.24219l-0.47656-0.29297c-0.38281-0.32031-0.76563-0.64062-1.1562-0.95312l-10.105-8.3984c-2.6367-2.1172-5.2148-3.9414-7.7383-5.4727-0.41016-0.25-0.80469-0.47656-1.1836-0.6875-1.0195-0.6875-1.8672-1.2305-2.4766-1.6172-1.1406-0.72266-2.2188-1.3789-3.2227-1.9844s-1.957-1.1328-2.8438-1.5938-1.7344-0.875-6.2305-2.8906c-4.4961-2.0117-9.0195-4.3398-13.738-6.6289-4.7188-2.2891-9.5547-4.7031-14.562-7.1367s-10.117-4.8867-10.75-5.4141c-0.63281-0.52734-2.3867-0.92578-5.1289-1.2617-2.7422-0.33203-6.5352-0.74609-11.406-1.2188-4.875-0.47266-10.855-0.83203-12.66-0.80078-1.8008 0.03125-4.0625 0.050782-6.8086 0.17188-2.1055 0.097656-4.4961 0.28906-7.168 0.58984-2.6719-0.29688-5.0625-0.49219-7.168-0.58203-2.7461-0.12109-5.0078-0.14062-6.8086-0.17188-1.8008-0.03125-7.7852 0.33203-12.66 0.80078-4.875 0.47266-8.668 0.88281-11.406 1.2188-2.7422 0.33203-4.4961 0.73047-5.1289 1.2617-0.63281 0.52734-5.7422 2.9805-10.75 5.4141-5.0078 2.4336-9.8477 4.8438-14.562 7.1367-4.7188 2.2891-9.2422 4.6172-13.738 6.6289-4.4961 2.0117-5.3438 2.4297-6.2305 2.8906-0.88672 0.46094-1.8398 0.98437-2.8438 1.5938-1.0039 0.60547-2.082 1.2656-3.2227 1.9844-0.60547 0.38281-1.4531 0.92578-2.4766 1.6133-0.37891 0.21094-0.77344 0.44141-1.1836 0.6875-2.5234 1.5312-5.1016 3.3555-7.7383 5.4727l-10.105 8.3984c-0.39062 0.31641-0.77344 0.63281-1.1562 0.95312l-0.47656 0.29297c0.035156 0.03125 0.17188-0.050781 0.41797-0.24219-2.6875 2.2695-5.1562 4.6797-7.4609 7.1406-4.0547 4.3359-7.5898 8.8984-10.395 13.781-0.007812 0.011719-0.011719 0.019531-0.019531 0.03125-0.90625 1.3672-1.4922 2.4062-1.7539 3.1133-1.5039 2.7305-2.2031 4.2305-2.8008 5.7031-0.79688 1.9531-1.4023 3.9336-2.1094 5.8438-0.70703 1.9102-1.2383 3.8398-1.5273 5.8125-0.082031 0.54688-0.62109 3.5117-1.3555 7.8945-0.84375 2.8555-1.5156 5.3203-2.0078 7.3906-0.51172 0.82031-1.6758 8.0391-3.4844 21.656-0.73828 6.7422-0.78516 14.066-0.13672 21.977 0.042968 0.49219 0.10156 0.97266 0.15625 1.4531 0.10937 2.3594 0.37891 4.9102 0.82422 7.6758 0.88672 2.8047 2.6289 4.3125 5.2188 4.5391 0.92188 0.39063 1.8984 0.55859 2.875 0.73438 4.1953 0.75 8.3984 1.6523 12.625 2.625 4.2266 0.97266 8.5039 1.9141 14.375 3.0508s13.18 2.0859 14.145 1.6602c0.96875-0.42578 1.3203-0.96094 1.5117-1.4961 0.19141-0.53516 0.27734-1.1055 0.30859-1.7305 0.015625-0.33203-0.027344-0.69141-0.10156-1.5938 0.125-0.65625 0.26562-1.4297 0.41797-2.3125l0.65625-7.1797c0.16406-2.4531 0.26562-3.7891 0.29688-4.0078l0.65625-5.7812c1.3867 4.9766 2.5859 9.6094 3.5898 13.895 0.39453 3.1523 0.75391 5.7539 1.0742 7.7852 0.40625 4.4961 0.66016 7.0977 0.75781 7.8086 0.027344 0.20312 0.054688 0.40234 0.082032 0.59766-0.25391 2.3711-0.33594 4.7539-0.22656 7.1562-0.035156 2.2305 0.71484 11.215 2.2461 26.953 0.71875 4.4258 1.4062 9.3398 2.0664 14.746 0.24609 4.0977 0.45312 7.2383 0.57812 8.4727 0.38281 3.7969 0.69922 6.9102 0.97656 9.3711 0.27734 2.4609 0.43359 4.2773 0.51953 5.4219 0.085937 1.1445 0.089844 1.6914 0.13672 2.6992 0.050782 1.0078 0.078126 2.1758 0.085938 3.5391 0.007812 1.3594-0.015625 2.9102-0.066406 4.6445-0.054688 1.7344-0.125 3.6641-0.16797 4.957-0.042969 1.293-0.12891 3.1328-0.30078 5.5273-0.16797 2.3945-0.39062 5.3398-0.63672 8.8438-0.24609 3.5-0.5 7.5586-0.51953 8.2656-0.015625 0.67969-0.023438 1.5-0.007813 2.457-0.089843 0.62891-0.1875 1.4141-0.28906 2.4141-1.0977 5.5312-2.625 15.91-4.5859 31.141-0.19141 1.6562-0.32812 3.1914-0.40625 4.6094-0.027343 0.47656-0.054687 0.96094-0.082031 1.4453l-0.44531 1.1133c-0.10547 1.1484-0.26563 2.4961-0.47656 4.043-0.60938 3.8242-1.2656 8.332-1.9766 13.527-0.015624 0.5-0.33203 3.5781-0.94531 9.2188-0.03125 0.18359-0.058594 0.36328-0.089844 0.54688-0.6875 4.3203-1.1719 8.8516-1.1211 11.719 0.054688 2.8672 0.33594 3.0156 0.65625 3.1445 0.32031 0.12891 0.70703 0.26172 1.1719 0.40234 0.46484 0.13672 1.0195 0.26953 2.5352 0.53516 1.5156 0.26563 3.9727 0.73828 6.6602 1.293 2.6875 0.55469 5.5781 1.293 8.6875 2.1641 3.1055 0.86719 6.4492 1.7852 10.008 2.6211 3.5586 0.83594 6.6914 1.4375 9.2266 1.8867 2.5352 0.45312 4.4727 0.76562 5.8203 0.93359h0.003906c1.8516 0.44141 3.8281 0.87109 5.9297 1.2891 1.293 0.21484 2.6016 0.35938 3.9219 0.44141 0.55078 0.046875 1.1523 0.082031 1.8125 0.10547 0.74609 0.027343 1.5586 0.039062 2.3047 0.035156 0.52734 0.03125 0.97656 0.042968 1.4336 0.054687 1.1016 0.019531 2.2344 0.023438 3.4023 0 1.168-0.023437 2.375-0.066406 3.1484-0.070312 0.77344-0.003907 1.418-0.066407 2.3828-0.19141 0.96484-0.12109 2.2773-0.32812 3.9453-0.58984 1.668-0.26172 3.6992-0.5625 5.1289-0.77344 1.4297-0.21094 2.0781-0.28125 2.7227-0.34766 0.64062-0.070313 1.2773-0.14453 1.9062-0.21484 0.62891-0.070312 1.2539-0.125 2.0312-0.19922 0.77734-0.070312 1.7578-0.13672 2.8086-0.21094 1.0547-0.074219 2.1797-0.12891 3.3789-0.16016 1.1992-0.03125 2.4727-0.050781 4.0156-0.070313 0.49609-0.019531 1-0.027344 1.5117-0.027344 0.51172 0.003907 1.0156 0.007813 1.5039 0.011719 1.5469 0.019531 2.8164 0.039063 4.0156 0.070313s2.3281 0.085937 3.3789 0.16016c1.0508 0.074219 2.0312 0.14062 2.8086 0.21094 0.77734 0.070312 1.4023 0.12891 2.0312 0.19922 0.62891 0.070313 1.2656 0.14453 1.9062 0.21484s1.293 0.13672 2.7227 0.34766c1.4297 0.21094 3.4609 0.51172 5.1289 0.77344 1.668 0.26172 2.9766 0.46875 3.9453 0.58984 0.96484 0.12109 1.6094 0.1875 2.3828 0.19141 0.77344 0.003906 1.9805 0.046875 3.1484 0.070312 1.168 0.023438 2.3047 0.023438 3.4023 0 0.45312-0.007812 0.90625-0.023437 1.4336-0.054687 0.74609 0.003906 1.5586-0.007813 2.3047-0.035157 0.66406-0.023437 1.2656-0.058593 1.8164-0.10547 1.3203-0.082032 2.625-0.22656 3.918-0.44141 2.1016-0.41797 4.0781-0.84766 5.9297-1.2891 1.3516-0.16797 3.2852-0.48047 5.8203-0.93359s5.668-1.0508 9.2266-1.8867c3.5586-0.83594 6.8984-1.7539 10.008-2.6211 3.1055-0.86719 6-1.6094 8.6875-2.1641 2.6875-0.55469 5.1445-1.0273 6.6602-1.293 1.5156-0.26563 2.0664-0.39844 2.5352-0.53516 0.46484-0.13672 0.85156-0.26953 1.1719-0.40234 0.32031-0.13281 0.60156-0.27734 0.65234-3.1445 0.054688-2.8672-0.42969-7.3984-1.1211-11.719-0.03125-0.18359-0.058594-0.36328-0.089844-0.54688-0.61328-5.6445-0.92969-8.7188-0.94531-9.2227-0.71094-5.1953-1.3711-9.7031-1.9766-13.527-0.21094-1.5469-0.37109-2.8945-0.47656-4.043l-0.44531-1.1133c-0.027344-0.48438-0.054687-0.96875-0.082031-1.4453-0.078125-1.418-0.21484-2.9531-0.40625-4.6094-1.9609-15.23-3.4922-25.609-4.5859-31.141-0.10156-1.0039-0.19922-1.7852-0.28906-2.4141 0.015625-0.95703 0.011718-1.7773-0.007813-2.457-0.019531-0.70703-0.27344-4.7656-0.51953-8.2656s-0.46484-6.4492-0.63672-8.8438c-0.16797-2.3945-0.25781-4.2344-0.30078-5.5273-0.042969-1.293-0.11719-3.2227-0.16797-4.957-0.054687-1.7344-0.074219-3.2812-0.066406-4.6445 0.007813-1.3594 0.035156-2.5312 0.085937-3.5391 0.050782-1.0078 0.050782-1.5547 0.13672-2.6992 0.085938-1.1445 0.24219-2.9609 0.51953-5.4219 0.27734-2.4609 0.59375-5.5742 0.97656-9.3711 0.125-1.2344 0.33203-4.375 0.57812-8.4727 0.66016-5.4062 1.3477-10.32 2.0664-14.746 1.5312-15.734 2.2812-24.719 2.2461-26.953 0.10938-2.4023 0.027344-4.7852-0.22656-7.1562 0.027343-0.19531 0.054687-0.39453 0.082031-0.59766 0.097656-0.71094 0.34766-3.3125 0.75781-7.8086 0.32031-2.0312 0.67969-4.6289 1.0742-7.7852 1.0039-4.2852 2.2031-8.918 3.5898-13.895l0.65625 5.7812c0.035156 0.21875 0.13281 1.5547 0.29688 4.0078l0.65625 7.1797c0.15234 0.88672 0.29297 1.6562 0.41797 2.3125-0.074219 0.90234-0.11719 1.2617-0.10156 1.5938 0.035156 0.625 0.11719 1.1914 0.30859 1.7305 0.19141 0.53516 0.54688 1.0703 1.5117 1.4961 0.96484 0.42578 8.2734-0.52344 14.145-1.6602 5.8711-1.1367 10.148-2.0781 14.375-3.0508 4.2266-0.97266 8.4297-1.875 12.625-2.625 0.97656-0.17578 1.9492-0.34375 2.875-0.73438 2.5898-0.22656 4.332-1.7344 5.2188-4.5391 0.44531-2.7656 0.71875-5.3203 0.82422-7.6758 0.058593-0.48047 0.11328-0.96094 0.15625-1.4531 0.66016-7.8984 0.61328-15.227-0.125-21.969zm-186.26-117.64c0.25781-0.26562 0.79297-0.57031 1.5977-0.91406 1.1445-0.17188 2.418-0.34375 3.8359-0.51172 4.0938-0.48047 9.293-1.0195 12.992-1.4727 3.6953-0.45703 5.5469-0.58594 7.9102-0.58984 2.3633-0.003906 5.2383 0.023438 8.6172 0.011719 0.37891 0 0.76562-0.003907 1.1562-0.007813 0.39062 0.003906 0.77734 0.007813 1.1562 0.007813 3.3828 0.011719 6.2539-0.015625 8.6172-0.011719 2.3633 0.003906 4.2148 0.13281 7.9102 0.58984 3.6953 0.45703 8.8984 0.99219 12.992 1.4727 1.4141 0.16797 2.6914 0.33984 3.8359 0.51172 0.80469 0.34375 1.3398 0.64844 1.5977 0.91406 1.8164 1.418 3.1953 3.2344 4.1484 5.4336-1.8672-0.085937-6.582-0.19922-14.148-0.33203-6.4766-0.003906-11.512-0.03125-15.098-0.089844-4.0469-0.039062-7.7188 0.10156-11.012 0.41797-3.293-0.31641-6.9648-0.45703-11.012-0.41797-3.5859 0.058594-8.6211 0.085938-15.098 0.089844-7.5664 0.13281-12.281 0.24609-14.148 0.33203 0.95312-2.2031 2.332-4.0156 4.1484-5.4336zm-3.5117 24.363c-5.5547 5.7305-11.887 14.324-19 25.785-10.555 17.285-17.684 30.398-21.387 39.344-5.4727 12.391-9.1289 22.094-10.977 29.113-1.0742 2.3125-1.9141 4.3672-2.5078 6.1523-0.23828-1.6367-0.47266-3.0508-0.58203-3.5898-0.125-0.61719-0.27734-1.2734-0.44922-1.9727-0.60937-4.5508-1.4609-8.4258-2.5586-11.629-1-3.4688-2.4766-7.4414-4.4297-11.91-1.0039-2.3359-1.9258-4.3867-2.7656-6.1562-0.003906-0.011719-0.003906-0.027343-0.007812-0.039062 0.003906 0.015625 0.003906 0.027343 0.007812 0.039062-1.4297-3.0117-2.6289-5.207-3.5859-6.582-0.12891-0.058594-0.12109 0.13281 0.027343 0.57422 1.0508 3.0508 2.1328 6.4688 3.2461 10.258 3.1836 8.7422 4.8047 13.602 4.8594 14.582 0.19141 0.82031 0.33203 1.5195 0.41406 2.0977 0.29297 2.8633 0.87109 6.8164 1.7344 11.859 0.078125 0.78516 0.13281 1.4727 0.16016 2.0742-0.9375-1.7734-1.9414-3.5039-3.0234-5.1836-3.2734-5.082-7.1094-9.7539-9.625-12.395-0.15625-0.20703-0.30469-0.41016-0.46484-0.61719-0.94141-1.1797-2.543-2.8008-4.7969-4.8594-0.91406-0.80469-1.7773-1.4844-2.5938-2.0391-0.32422-0.21875-0.46484-0.24219-0.41406-0.070312 2.25 2.4219 5.25 6.1523 9 11.191 1.6211 2.4336 3.1016 4.8047 4.4492 7.125l1.168 3.2578c0.42188 1.3828 0.8125 2.9141 1.1719 4.5859 0.23438 1.0273 0.41016 2 0.53125 2.918 0.03125-0.054687 0.16016 1.332 0.38672 4.1484-0.45313 5.0703-0.83594 8.8398-1.1484 11.301-0.83594 6.5508-1.4414 10.805-1.8164 12.758-0.0625 0.46094-0.046875 0.85547 0.03125 1.1914-0.82031-0.16016-1.8594-0.34766-3.1758-0.57031-7.1875-1.2109-11.359-2.25-15.621-3.3945-3.0195-0.80859-6.0352-1.5586-9.0469-2.2539 0.12891-0.6875 0.25781-1.6484 0.39062-2.8945 0.73828-13.281 1.2812-21.172 1.6367-23.68 1.125-8.7891 2.0977-14.945 2.9219-18.465 1.9805-10.742 6.6602-22.93 14.031-36.555 7.3555-11.18 15.918-21.098 25.688-29.758 4.8867-4.3281 10.07-8.3438 15.562-12.043l8.4609-5.3125c0.83984-0.49219 1.6875-0.97266 2.5352-1.4492 4.1562-1.5938 8.6914-3.2734 13.617-5.0469 2.0195-0.8125 3.3945-1.4922 4.1289-2.0312 0.15234-0.097657 0.28906-0.21094 0.41016-0.33984 0.050782 0.125 0.097656 0.25391 0.15234 0.37891 0.73828 1.7617 1.7422 3.5898 2.8477 5.3125 0.71484 1.1133 1.4219 2.1367 2.1445 3.1133zm76.672-4.4609c-0.49609 0.64844-1.0195 1.2656-1.5547 1.8594-0.94922 0.92188-2.0078 1.875-3.1719 2.8633l-22.172 13.969c-3.6875 1.7812-5.6328 2.6875-5.8398 2.7188-0.63281 0.33203-2.0742 0.82422-4.3125 1.4805-2.2383-0.65234-3.6797-1.1484-4.3125-1.4805-0.20703-0.03125-2.1523-0.9375-5.8398-2.7188l-22.172-13.969c-1.1641-0.98828-2.2227-1.9414-3.1719-2.8633-0.53516-0.59766-1.0586-1.2109-1.5547-1.8594-0.77734-1.0117-1.6094-2.1875-2.3398-3.3867-0.67188-1.5469-1.1172-2.9062-1.3203-4.0586-0.11328-0.59375-0.19141-1.1523-0.24609-1.6953l0.67969 0.03125c2.7734-0.082031 4.2344-0.12109 4.3867-0.10938 3.5 0.058594 8.8672 0.042969 16.102-0.042969l14.625-0.33594c0.45312-0.011719 1.125-0.015625 2.0156-0.011719 0.17188 0.050781 0.38281 0.078125 0.64063 0.078125 0.91016-0.015625 1.7461-0.03125 2.5078-0.042969 0.76172 0.011719 1.5938 0.027344 2.5078 0.042969 0.25781 0 0.46875-0.027344 0.64063-0.078125 0.89062-0.003906 1.5664 0 2.0156 0.011719l14.625 0.33594c7.2344 0.085938 12.602 0.10156 16.102 0.042969 0.15234-0.011719 1.6133 0.027344 4.3867 0.10938l0.67969-0.03125c-0.054687 0.54297-0.13281 1.1016-0.24609 1.6953-0.20313 1.1523-0.64453 2.5117-1.3164 4.0586-0.73047 1.1953-1.5664 2.375-2.3438 3.3867zm86.316 133.8c-4.2617 1.1445-8.4336 2.1836-15.621 3.3945-1.3164 0.22266-2.3516 0.41016-3.1758 0.57031 0.082032-0.33594 0.097657-0.72656 0.03125-1.1914-0.375-1.9531-0.98047-6.2031-1.8164-12.758-0.3125-2.4648-0.69531-6.2305-1.1484-11.301 0.22656-2.8164 0.35547-4.2031 0.38672-4.1484 0.12109-0.91797 0.30078-1.8906 0.53125-2.918 0.35937-1.6719 0.75-3.1992 1.1719-4.5859l1.168-3.2578c1.3477-2.3203 2.8242-4.6953 4.4492-7.125 3.75-5.0391 6.75-8.7695 9-11.191 0.050781-0.17188-0.089844-0.14453-0.41406 0.070312-0.8125 0.55078-1.6797 1.2305-2.5938 2.0391-2.2539 2.0625-3.8555 3.6797-4.7969 4.8594-0.16016 0.20703-0.30859 0.41406-0.46484 0.61719-2.5156 2.6406-6.3516 7.3125-9.625 12.395-1.082 1.6797-2.082 3.4102-3.0234 5.1836 0.027344-0.60156 0.082031-1.2891 0.16016-2.0742 0.86328-5.043 1.4414-8.9961 1.7344-11.859 0.082032-0.57812 0.21875-1.2773 0.41406-2.0977 0.054687-0.98047 1.6719-5.8398 4.8594-14.582 1.1094-3.7891 2.1914-7.207 3.2461-10.258 0.14844-0.44141 0.15625-0.63281 0.027344-0.57422-0.96094 1.375-2.1562 3.5703-3.5859 6.582 0.003906-0.011719 0.003906-0.023437 0.007812-0.039063-0.003906 0.011719-0.003906 0.027344-0.007812 0.039063-0.83984 1.7695-1.7617 3.8203-2.7656 6.1562-1.9531 4.4727-3.4297 8.4414-4.4297 11.91-1.0977 3.2031-1.9531 7.0781-2.5586 11.629-0.16797 0.69922-0.32422 1.3555-0.44922 1.9727-0.10938 0.53906-0.34375 1.9531-0.58203 3.5898-0.59375-1.7852-1.4336-3.8398-2.5078-6.1523-1.8477-7.0195-5.5078-16.723-10.977-29.113-3.7031-8.9414-10.832-22.055-21.387-39.344-7.1133-11.457-13.445-20.055-19-25.785l-1.7344-1.6719c0.72266-0.97656 1.4297-2 2.1445-3.1133 1.1055-1.7227 2.1094-3.5508 2.8477-5.3125 0.054688-0.12891 0.10156-0.25391 0.15234-0.37891 0.12109 0.12891 0.25781 0.24219 0.41016 0.33984 0.73438 0.53906 2.1094 1.2148 4.1289 2.0312 4.9258 1.7695 9.4609 3.4531 13.617 5.0469 0.85156 0.47656 1.6992 0.95703 2.5352 1.4492l8.4609 5.3125c5.4883 3.6992 10.676 7.7148 15.562 12.043 9.7695 8.6602 18.332 18.578 25.688 29.758 7.3711 13.625 12.051 25.809 14.031 36.555 0.82422 3.5234 1.7969 9.6797 2.9219 18.465 0.35156 2.5078 0.89844 10.402 1.6367 23.68 0.12891 1.2461 0.25781 2.207 0.38672 2.8945-3.0156 0.69141-6.0273 1.4414-9.0469 2.25z"/>
</svg>
