<?xml version="1.0" encoding="UTF-8"?>
<svg version="1.1" viewBox="0 0 512 512" xmlns="http://www.w3.org/2000/svg">
 <path d="m455.11 227.55c-4.6133 1.5391-9.2266 3.0742-12.301 4.6133 4.6133-1.5391 9.2266-1.5391 12.301-3.0742v-1.5391 3.0742c-4.6133 1.5391-9.2266 3.0742-13.836 3.0742 0 1.5391 0 1.5391-1.5391 3.0742 6.1484-1.5391 10.762-3.0742 16.914-4.6133v1.5391c-6.1484 1.5391-10.762 3.0742-16.914 4.6133v1.5391c4.6133-1.5391 10.762-3.0742 16.914-6.1484v1.5391c-6.1484 3.0742-12.301 4.6133-18.449 6.1484v1.5391c6.1484-1.5391 12.301-3.0742 18.449-6.1484v1.5391c-6.1484 3.0742-12.301 4.6133-18.449 6.1484v1.5391c6.1484-1.5391 12.301-3.0742 18.449-6.1484v1.5391c-6.1484 3.0742-12.301 4.6133-18.449 6.1484v1.5391c6.1484-1.5391 12.301-3.0742 18.449-6.1484v1.5391c-15.375 9.2266-66.113 15.375-76.875 7.6875l-3.0742-63.039c-29.215 75.34-12.301 216.79-3.0742 298.28h-41.512c4.6133-15.375 12.301-46.125 7.6875-63.039-3.0742-10.762 12.301-32.289 6.1484-47.664-13.836-41.512 3.0742-179.89 23.062-221.41v-6.1484c-26.137 32.289-46.125 189.12-32.289 229.09 4.6133 12.301-9.2266 33.824-6.1484 47.664 4.6133 15.375-1.5391 44.59-9.2266 61.5h-130.69c-6.1484-16.914-12.301-46.125-9.2266-61.5 3.0742-13.836-10.762-35.363-6.1484-47.664 13.836-39.977-6.1484-196.8-32.289-229.09v6.1484c19.988 41.512 36.902 179.89 23.062 221.41-6.1484 15.375 9.2266 36.902 6.1484 47.664-4.6133 16.914 3.0742 47.664 9.2266 63.039h-43.051c9.2266-81.488 26.137-222.94-3.0742-298.28l-3.0742 63.039c-10.762 7.6875-61.5 1.5391-76.875-7.6875v-1.5391c6.1484 3.0742 12.301 4.6133 18.449 6.1484v-1.5391c-6.1484-1.5391-12.301-3.0742-18.449-6.1484v-1.5391c6.1484 3.0742 12.301 4.6133 18.449 6.1484v-1.5391c-6.1484-1.5391-12.301-3.0742-18.449-6.1484v-1.5391c6.1484 3.0742 12.301 4.6133 18.449 6.1484v-1.5391c-6.1484-1.5391-12.301-3.0742-18.449-6.1484 1.5391 0 1.5391 0 1.5391-1.5391 4.6133 3.0742 10.762 4.6133 16.914 6.1484 0-1.5391 0-1.5391-1.5391-1.5391-4.6133-1.5391-10.762-3.0742-15.375-4.6133v-1.5391c4.6133 1.5391 9.2266 3.0742 15.375 4.6133 0-1.5391-1.5391-1.5391-1.5391-3.0742-4.6133 0-9.2266-1.5391-13.836-3.0742v-3.0742 1.5391c4.6133 1.5391 7.6875 1.5391 12.301 3.0742-3.0742-1.5391-6.1484-3.0742-12.301-4.6133 4.6133-33.824 12.301-98.402 24.602-129.15 9.2266-21.527 23.062-33.824 47.664-39.977 13.836-3.0742 32.289-9.2266 46.125-16.914 4.6133-3.0742 10.762-7.6875 16.914-9.2266 0 33.824 32.289 78.414 64.578 90.715 30.75-12.301 63.039-56.891 63.039-90.715 6.1484 1.5391 12.301 6.1484 18.449 9.2266 12.301 7.6875 32.289 13.836 44.59 16.914 27.676 6.1484 41.512 21.527 50.738 47.664 10.762 30.75 18.449 87.641 21.527 121.46zm-229.09-144.53c10.762 13.836 21.527 23.062 30.75 27.676 7.6875-4.6133 19.988-13.836 30.75-27.676-19.988 3.0742-43.051 3.0742-61.5 0zm30.75 38.438c-30.75-13.836-63.039-56.891-63.039-90.715 7.6875-3.0742 15.375-6.1484 18.449-4.6133 39.977 9.2266 47.664 9.2266 87.641 0 3.0742-1.5391 10.762 1.5391 18.449 4.6133 1.5391 33.824-32.289 76.875-61.5 90.715zm-52.277-87.641c0 3.0742 0 4.6133 1.5391 7.6875 35.363 9.2266 64.578 9.2266 101.48 0v-7.6875c-38.438 10.762-64.578 10.762-103.02 0z" fill-rule="evenodd"/>
</svg>
