<?xml version="1.0" encoding="UTF-8"?>
<svg  version="1.1" viewBox="0 0 512 512" xmlns="http://www.w3.org/2000/svg">
 <path d="m135.68 74.754c-0.51172 0.51172-1.0234 0.51172-1.0234 1.0234v1.0234c1.0234 0.51172 2.5586 2.0469 4.6094 3.0703 1.0234 0.51172 2.5586 1.0234 4.0977 1.5352 1.5352 0.51172 3.0703 0.51172 4.6094 0.51172 7.168 0.51172 13.824-2.5586 16.895-3.0703 0.51172 0 0.51172-0.51172 1.0234-1.0234v-1.0234c-0.51172-1.0234-2.0469-2.5586-4.0977-3.5859-2.0469-1.5352-5.1211-2.5586-8.7031-3.0703-6.6562-0.51172-14.852 3.0703-17.41 4.6094z"/>
 <path d="m132.61 70.656c2.5586-2.5586 9.2148-8.1914 12.801-15.359 1.5352-3.5859 2.5586-6.6562 2.5586-9.2148 0-2.5586 0-4.6094-0.51172-5.6328 0-0.51172-0.51172-0.51172-1.0234-0.51172-0.51172 0-1.0234 0-1.5352 0.51172-3.0703 1.5352-10.754 8.1914-13.824 14.848-1.0234 1.5352-1.5352 3.5859-1.5352 5.1211-0.51172 1.5352-0.51172 3.0703 0 4.6094 0 2.5586 1.0234 4.6094 1.0234 5.6328 0 0.51172 0.51172 0.51172 1.0234 0.51172 0-0.003906 0.51172-0.003906 1.0234-0.51562z"/>
 <path d="m107.01 99.84c-0.51172 0.51172-1.0234 1.0234-1.0234 1.5352s0 1.0234 0.51172 1.0234c2.5586 1.5352 8.7031 4.0977 16.895 3.0703 4.0977-0.51172 8.1914-2.0469 11.266-3.5859 3.0703-1.5352 5.6328-3.0703 7.168-4.0977 0.51172 0 0.51172-0.51172 0.51172-1.0234s0-1.0234-0.51172-1.0234c-2.0469-1.5352-7.6797-6.1445-15.871-5.1211-2.0469 0-4.0977 0.51172-6.1445 1.5352-2.0469 0.51172-4.0977 1.5352-5.6328 2.5586-3.0703 2.0586-5.6328 4.1055-7.168 5.1289z"/>
 <path d="m111.11 58.879c-1.5352 1.5352-4.0977 4.6094-6.6562 8.1914-2.5586 3.5859-5.1211 7.6797-6.1445 12.289-2.0469 9.2148 1.0234 15.359 2.5586 17.406 0 0.51172 0.51172 0.51172 1.0234 0.51172s1.0234-0.51172 1.0234-0.51172c1.0234-1.5352 3.5859-4.6094 5.6328-8.1914 1.0234-2.0469 2.0469-3.5859 3.0703-5.6328 1.0234-2.0469 2.0469-4.0977 2.5586-6.1445 2.5586-8.7031 0.51172-15.359-0.51172-17.922 0-0.51172-0.51172-0.51172-1.0234-0.51172-0.50781-0.50781-1.0195 0.003907-1.5312 0.51562z"/>
 <path d="m81.406 133.63c-0.51172 0.51172-0.51172 1.0234-0.51172 1.5352s0.51172 1.0234 0.51172 1.0234c1.5352 0.51172 4.0977 1.0234 7.6797 1.0234 1.5352 0 3.5859 0 5.6328-0.51172s4.0977-1.0234 6.1445-1.5352c4.6094-1.5352 8.7031-4.0977 11.777-6.1445 3.5859-2.0469 6.1445-4.6094 7.6797-5.6328 0.51172-0.51172 0.51172-1.0234 0.51172-1.0234 0-0.51172 0-1.0234-0.51172-1.0234-2.5586-1.5352-9.7266-4.6094-19.457-2.0469-4.6094 1.5352-8.7031 4.0977-12.289 7.168-1.0234 0.51172-1.5352 1.5352-2.5586 2.0469l-2.0469 2.0469c-1.0234 1.0273-2.0469 2.0508-2.5625 3.0742z"/>
 <path d="m77.312 86.527c-1.5352 2.0469-4.0977 6.1445-6.1445 10.754s-3.5859 10.238-4.0977 15.871c0 2.5586 0 5.1211 0.51172 7.168 0.51172 2.0469 1.0234 4.0977 2.0469 5.6328 1.5352 3.0703 3.5859 5.1211 4.6094 6.1445 0.51172 0.51172 1.0234 0.51172 1.5352 0 0.51172 0 1.0234-0.51172 1.0234-1.0234v-0.51172c0.51172-1.0234 1.0234-2.5586 2.0469-4.0977 0.51172-1.0234 0.51172-2.0469 1.0234-3.0703 0.51172-1.0234 1.0234-2.0469 1.0234-3.0703 1.5352-4.6094 3.0703-9.7266 3.5859-14.848 1.0234-10.238-2.5586-17.406-4.0977-19.969 0-0.51172-0.51172-0.51172-1.5352-0.51172l-1.5312 1.5312z"/>
 <path d="m61.953 177.66c-0.51172 0.51172-0.51172 1.5352 0 2.0469 0 0.51172 0.51172 1.0234 1.0234 1.0234 1.5352 0 5.1211 0 8.7031-1.0234 2.0469-0.51172 4.0977-1.0234 6.1445-2.0469 2.0469-1.0234 4.0977-2.0469 6.6562-3.5859 2.0469-1.5352 4.0977-3.0703 6.1445-4.6094l2.5586-2.5586c0.51172-0.51172 1.0234-1.0234 1.0234-1.5352l1.0234-1.0234c3.0703-3.0703 5.1211-6.1445 6.6562-8.1914v-0.51172c0-0.51172 0.51172-1.0234 0-1.5352 0-0.51172-0.51172-1.0234-1.0234-1.0234-3.5859-1.0234-11.777-3.0703-21.504 2.5586-9.2148 5.6328-15.871 16.895-17.406 22.016z"/>
 <path d="m46.078 126.98c-1.0234 2.5586-2.5586 7.6797-4.0977 13.312 0 0.51172-0.51172 1.5352-0.51172 2.0469 0 0.51172 0 1.5352-0.51172 2.0469 0.003907 2.0508 0.003907 3.5859 0.003907 5.1211 0 3.0703 0 6.1445 0.51172 9.2148 0.51172 3.0703 1.5352 5.6328 2.5586 7.6797 1.0234 2.0469 2.5586 4.0977 3.5859 5.6328 2.5586 3.0703 5.1211 4.6094 6.6562 5.6328h1.5352c0.51172-0.51172 0.51172-1.0234 1.0234-1.5352v-0.51172c0.51172-5.1211 3.0703-17.922 1.5352-29.695-1.5352-11.777-7.168-18.945-9.7266-21.504-0.51172-0.51172-1.0234-0.51172-1.5352 0-0.51172 1.0234-1.0273 1.5352-1.0273 2.5586z"/>
 <path d="m53.762 226.3c0 0.51172 0 1.5352 0.51172 2.0469 0.51172 0.51172 1.0234 1.0234 1.5352 0.51172 2.0469-0.51172 5.1211-1.5352 9.2148-3.0703 2.0469-1.0234 4.0977-2.0469 6.1445-3.5859 1.0234-0.51172 2.0469-1.5352 3.0703-2.5586 1.0234-1.0234 2.0469-2.0469 3.0703-3.0703 2.0469-2.0469 3.5859-4.0977 5.1211-6.6562 0.51172-1.0234 1.5352-2.0469 2.0469-3.5859 0.51172-1.0234 1.5352-2.0469 2.0469-3.0703 2.5586-4.0977 4.0977-8.1914 4.6094-10.238v-0.51172-1.5352c0-0.51172-0.51172-1.0234-1.0234-1.0234-2.0469 0-5.6328 0-9.7266 1.0234-4.0977 1.0234-8.7031 3.0703-13.312 7.168-9.2148 8.1875-12.797 22.523-13.309 28.156z"/>
 <path d="m23.551 175.62c-0.51172 3.0703-1.0234 9.2148-1.0234 15.871 0 1.5352 0 3.5859 0.51172 5.1211 0.51172 1.5352 0.51172 3.5859 1.0234 5.1211 0.51172 3.5859 2.0469 6.6562 3.0703 9.7266 0.51172 1.5352 1.5352 3.0703 2.0469 4.0977 1.0234 1.5352 2.0469 2.5586 2.5586 3.5859 2.0469 2.0469 3.5859 3.5859 5.6328 5.1211 3.5859 2.5586 7.168 3.5859 8.7031 4.0977 0.51172 0 1.0234 0 1.5352-0.51172 0.51172-0.51172 0.51172-1.0234 0.51172-1.5352v-0.51172c-0.51172-5.6328-1.5352-20.48-6.1445-32.258-2.0469-6.1445-5.6328-10.754-8.7031-14.336-2.5547-3.0781-5.625-5.1289-7.1602-6.1523-0.51172-0.51172-1.0234 0-1.5352 0.51172-0.51562 0.51172-1.0273 1.0273-1.0273 2.0508z"/>
 <path d="m58.879 280.57c0 1.0234 0.51172 1.5352 1.0234 2.0469 0.51172 0.51172 1.0234 0.51172 1.5352 0.51172 2.0469-1.0234 5.1211-3.0703 8.7031-6.1445 3.5859-3.0703 7.168-7.6797 10.238-12.801 1.5352-2.5586 2.5586-5.6328 3.5859-8.7031 0.51172-1.5352 1.0234-2.5586 1.0234-4.0977 0.51172-1.5352 1.0234-2.5586 1.0234-4.0977 1.0234-5.1211 2.0469-9.7266 2.0469-12.289v-0.51172c0-0.51172 0-1.0234-0.51172-1.5352s-1.0234-0.51172-1.5352-0.51172c-4.0977 1.0234-14.848 3.5859-22.016 14.848-3.5859 5.6328-5.1211 12.289-6.1445 18.434-0.51172 3.0703-0.51172 6.1445-0.51172 8.7031 1.0273 2.5664 1.5391 4.6133 1.5391 6.1484z"/>
 <path d="m12.801 235.01c0.51172 3.5859 1.0234 10.238 3.5859 17.406 0.51172 1.5352 1.0234 3.5859 2.0469 5.6328 0.51172 2.0469 1.5352 3.5859 2.5586 5.1211 1.5352 3.5859 3.5859 6.6562 6.1445 9.7266 5.1211 5.6328 10.238 8.7031 14.848 10.238 4.6094 1.5352 8.1914 2.0469 10.754 2.0469 0.51172 0 1.0234-0.51172 1.0234-1.0234v-2.0469-0.51172c-2.5625-5.6289-7.6836-20.988-15.875-32.766-8.1914-11.777-18.945-16.383-23.039-17.406-0.51172 0-1.0234 0-1.5352 1.0234-0.51172 0.51172-0.51172 1.5352-0.51172 2.5586z"/>
 <path d="m80.895 334.34c0.51172 1.0234 1.0234 1.5352 1.5352 1.5352 0.51172 0.51172 1.5352 0 1.5352 0 1.5352-1.5352 4.6094-4.6094 7.168-9.2148 2.5586-4.6094 5.1211-10.238 6.6562-16.895 1.5352-6.6562 1.5352-13.312 1.0234-18.945 0-5.6328-1.0234-10.238-1.0234-13.312v-0.51172c0-0.51172-0.51172-1.0234-1.0234-1.0234-0.51172-0.51172-1.0234-0.51172-1.5352 0-4.0977 2.0469-14.848 8.1914-18.945 22.016-1.0234 3.5859-1.5352 7.168-1.5352 10.754 0 3.5859 0.51172 7.168 1.0234 10.754 0.51172 3.0703 1.5352 6.6562 2.5586 9.2148 1.0273 2.0469 2.0508 4.0938 2.5625 5.6289z"/>
 <path d="m18.945 300.54c1.5352 4.0977 4.6094 10.754 9.2148 17.406 4.6094 6.6562 10.754 13.824 17.922 18.434 7.168 4.6094 13.824 6.1445 18.945 6.1445s9.2148-1.0234 11.777-1.5352c0.51172 0 1.0234-0.51172 1.0234-1.5352 0-0.51172 0-1.0234-0.51172-2.0469v-0.51172c-1.0234-1.5352-2.5586-3.0703-4.0977-5.6328-2.0469-2.0469-3.5859-4.6094-6.1445-7.6797-2.5586-2.5586-4.6094-5.6328-7.6797-8.1914-2.5586-2.5586-5.6328-5.6328-8.7031-8.1914-12.289-9.7266-24.574-11.777-29.184-11.777-0.51172 0-1.0234 0.51172-1.0234 1.0234-2.0508 2.0469-2.0508 3.0703-1.5391 4.0938z"/>
 <path d="m121.86 382.98c0.51172 0.51172 1.5352 1.0234 2.0469 1.0234 0.51172 0 1.5352 0 1.5352-0.51172 1.0234-2.0469 3.0703-6.6562 4.0977-11.777 1.0234-5.6328 2.0469-12.289 1.0234-19.457-0.51172-7.168-3.0703-14.336-5.1211-19.969-0.51172-1.5352-1.0234-2.5586-1.5352-4.0977-0.51172-1.5352-1.0234-2.5586-1.5352-3.5859-1.0234-2.0469-2.0469-4.0977-2.5586-5.1211v-0.51172c-0.51172-0.51172-0.51172-1.0234-1.5352-1.0234-0.51172 0-1.0234 0-1.5352 0.51172-3.5859 3.5859-12.801 13.312-12.289 28.672 0 2.0469 0.51172 4.0977 0.51172 5.6328 0.51172 2.0469 1.0234 3.5859 1.5352 5.6328 1.0234 3.5859 3.0703 7.168 4.6094 10.754 1.5352 3.0703 3.5859 6.1445 5.6328 8.7031 2.0469 1.5391 4.0938 3.5898 5.1172 5.125z"/>
 <path d="m46.594 367.62c1.5352 2.0469 3.5859 4.0977 6.1445 6.6562 1.5352 1.5352 2.5586 2.5586 4.0977 4.0977 1.5352 1.5352 3.0703 3.0703 5.1211 4.0977 7.168 5.6328 15.871 10.754 24.574 13.312 8.7031 2.0469 16.383 1.5352 22.016 0s9.2148-4.0977 11.266-5.6328c0.51172-0.51172 0.51172-1.0234 0.51172-1.5352s-0.51172-1.0234-1.0234-1.5352l-0.51172-0.51172c-1.5352-1.0234-3.5859-2.5586-6.1445-4.0977-2.5586-1.5352-5.6328-3.5859-9.2148-5.6328-3.0703-2.0469-7.168-4.0977-10.754-6.1445-2.0469-1.0234-4.0977-2.0469-5.6328-2.5586-2.0469-1.0234-4.0977-1.5352-6.1445-2.5586-2.0469-0.51172-4.0977-1.5352-6.1445-2.0469-2.0469-0.51172-3.5859-1.0234-5.6328-1.5352-3.5859-0.51172-7.168-1.0234-9.7266-1.0234-6.1445 0-10.238 1.0234-12.801 1.5352-0.51172 0-1.0234 1.0234-1.0234 1.5352-0.003906 1.5273-0.003906 2.5547 1.0234 3.5781z"/>
 <path d="m177.66 416.26c1.0234 0.51172 1.5352 0.51172 2.5586 0.51172 1.0234 0 1.0234-0.51172 1.5352-1.5352 0.51172-2.5586 0.51172-7.6797 0-13.824-0.51172-6.1445-2.5586-12.801-5.6328-19.969-1.5352-3.5859-3.5859-6.6562-5.6328-9.7266-1.0234-1.5352-2.0469-3.0703-3.0703-4.6094-1.0234-1.5352-2.0469-2.5586-3.0703-4.0977-4.0977-5.1211-7.6797-9.2148-9.7266-11.266h-0.51172c-0.51172-0.51172-1.0234-0.51172-1.5352-0.51172s-1.0234 0.51172-1.5352 1.0234c-1.5352 2.5586-3.5859 6.6562-4.6094 12.289-1.0234 5.6328-1.5352 12.801 1.5352 20.992 1.5352 3.5859 3.5859 7.6797 6.1445 11.266 1.0234 1.5352 2.5586 3.5859 4.0977 5.1211 1.5352 1.5352 3.0703 3.0703 4.0977 4.0977 6.1406 5.1172 12.285 8.6992 15.355 10.238z"/>
 <path d="m178.18 422.91c-0.51172-0.51172-1.0234-1.0234-1.5352-1.5352h-0.51172c-4.0977-1.0234-10.754-3.0703-18.945-4.6094-2.0469-0.51172-4.0977-1.0234-6.1445-1.0234-2.5586-1.0234-5.1172-1.0234-7.168-1.5352-4.6094-0.51172-9.2148-1.5352-13.824-1.5352-9.2148-0.51172-17.406 1.0234-23.551 3.0703-6.1445 2.0469-10.754 4.6094-12.801 6.1445-0.51172 0.51172-0.51172 1.0234-0.51172 2.0469 0.51172 1.0234 1.0234 1.5352 2.0469 2.5586 4.0977 2.5586 11.777 7.168 20.992 10.754 2.5586 1.0234 4.6094 1.5352 7.168 2.5586 2.5586 0.51172 5.1211 1.0234 7.6797 1.5352 5.1211 1.0234 10.238 1.5352 15.359 1.0234 9.7266-0.51172 17.406-4.0977 22.527-7.6797 5.1211-3.5859 8.1914-7.6797 9.7266-9.7266 0.003906-1.0195 0.003906-1.5312-0.50781-2.0469z"/>
 <path d="m245.25 429.57c1.0234 0 2.0469 0 2.5586-0.51172 0.51172-0.51172 1.0234-1.0234 1.0234-1.5352-0.51172-3.0703-2.0469-8.1914-5.1211-13.824-3.0703-5.6328-7.168-12.289-12.801-17.922-3.0703-3.0703-6.1445-5.6328-9.2148-8.1914-3.0703-2.5586-6.1445-4.6094-9.2148-6.1445-3.0703-2.0469-5.6328-3.5859-7.6797-4.6094-2.0469-1.5352-4.0977-2.5586-5.6328-3.0703h-0.51172-1.5352c-0.51172 0-1.0234 1.0234-1.0234 1.5352-0.51172 3.0703-1.0234 8.1914-0.51172 14.336 0.51172 3.0703 1.0234 6.6562 2.5586 10.238 1.5352 3.5859 3.5859 7.168 6.1445 10.754 1.5352 1.5352 3.0703 3.0703 4.6094 4.6094 1.0234 0.51172 1.5352 1.5352 2.5586 2.0469 1.0234 0.51172 2.0469 1.5352 2.5586 2.0469 2.0469 1.0234 3.5859 2.5586 5.6328 3.5859 2.0469 1.0234 4.0977 2.0469 6.1445 2.5586 7.6836 2.0508 15.363 3.5859 19.457 4.0977z"/>
 <path d="m245.76 434.69h-0.51172c-4.0977 0.51172-11.777 1.0234-20.992 2.5586-2.0469 0.51172-4.6094 0.51172-7.168 1.0234s-4.6094 0.51172-7.168 1.0234-5.1211 1.0234-7.168 1.5352c-2.5586 0.51172-5.1211 1.0234-7.168 2.0469-4.6094 1.5352-9.2148 3.0703-12.801 5.1211-3.5859 2.0469-7.168 4.0977-9.7266 6.1445-5.6328 4.0977-9.2148 8.1914-11.266 10.238-0.51172 0.51172-0.51172 1.5352 0.51172 2.0469 0.51172 1.0234 1.5352 1.5352 3.0703 1.5352 2.5586 0.51172 6.1445 1.5352 10.754 2.0469 4.6094 0.51172 9.2148 1.5352 14.848 1.5352h8.1914c2.5586 0 5.6328-0.51172 8.1914-1.0234 5.6328-0.51172 10.754-2.5586 15.871-4.6094 9.7266-4.0977 15.871-10.238 19.969-15.871 4.0977-5.6328 5.6328-10.754 6.1445-13.312 0-0.51172 0-1.5352-1.0234-2.0469-1.0234 0.51953-2.0469 0.007812-2.5586 0.007812z"/>
 <path d="m194.56 42.496c-2.0469 0-5.1211-0.51172-9.2148 0-2.0469 0-4.0977 0.51172-6.1445 1.0234s-4.6094 1.0234-6.6562 2.0469c-2.0469 1.0234-4.6094 2.0469-6.1445 3.0703-1.0234 0.51172-2.0469 1.0234-2.5586 1.5352-1.0234 0.51172-1.5352 1.5352-2.5586 2.0469-3.0703 2.5586-5.1211 5.1211-6.6562 6.6562-0.51172 0.51172-0.51172 1.0234-0.51172 1.5352 0.51172 0.51172 1.0234 0.51172 1.5352 0.51172 2.0469 0 5.1211-0.51172 9.2148-1.5352 1.0234 0 2.0469-0.51172 2.5586-0.51172 1.0234 0 2.0469-0.51172 3.0703-0.51172 2.0469-0.51172 4.0977-1.0234 6.1445-2.0469 2.0469-1.0234 4.0977-2.0469 6.1445-3.0703 2.0469-1.0234 3.5859-2.0469 5.1211-3.0703 3.0703-2.0469 5.6328-4.0977 7.168-5.6328 0.51172-0.51172 1.0234-1.0234 0.51172-1.5352 0.51562-0.51172 0.003907-0.51172-1.0234-0.51172z"/>
 <path d="m379.39 70.656c0.51172 0.51172 1.0234 0.51172 1.5352 0.51172s1.0234 0 1.0234-0.51172c0.51172-1.0234 1.0234-3.0703 1.0234-5.6328v-4.6094c0-1.5352-0.51172-3.5859-1.5352-5.1211-3.5859-7.168-10.754-13.312-13.824-14.848h-0.51172c-0.51172 0-1.0234-0.51172-1.5352-0.51172-0.51172 0-1.0234 0.51172-1.0234 0.51172 0 1.0234-0.51172 3.0703-0.51172 5.6328 0 2.5586 1.0234 5.6328 2.5586 9.2148 3.5859 7.1719 10.242 12.805 12.801 15.363z"/>
 <path d="m376.32 75.266c-3.0703-2.0469-10.754-5.1211-17.922-4.6094-3.5859 0-6.6562 1.5352-8.7031 3.0703-2.0469 1.5352-3.5859 3.0703-4.0977 3.5859 0 0.51172-0.51172 0.51172 0 1.0234 0 0.51172 0.51172 0.51172 1.0234 1.0234 3.0703 1.0234 9.7266 4.0977 16.895 3.0703 2.0469 0 3.5859-0.51172 4.6094-0.51172 1.5352-0.51172 2.5586-1.0234 4.0977-1.5352 2.0469-1.0234 4.0977-2.0469 4.6094-3.0703 0.51172 0 0.51172-0.51172 0-1.0234 0.51172-0.51172 0-1.0234-0.51172-1.0234z"/>
 <path d="m409.09 96.258c0.51172 0.51172 1.0234 1.0234 1.5352 1.0234s1.0234 0 1.0234-0.51172c1.5352-2.0469 4.6094-8.1914 2.5586-17.406-1.0234-4.6094-3.5859-8.7031-6.1445-12.289-2.5586-3.5859-5.1211-6.6562-6.6562-8.1914h-0.51172c-0.51172-0.51172-1.0234-0.51172-1.5352-0.51172s-1.0234 0-1.0234 0.51172c-1.0234 2.5586-3.0703 9.2148-0.51172 17.922 0.51172 2.0469 1.5352 4.0977 2.5586 6.1445 1.0234 2.0469 2.0469 3.5859 3.0703 5.6328 2.0508 3.0664 4.0977 6.1367 5.6367 7.6758z"/>
 <path d="m370.18 98.305c1.5352 1.0234 4.0977 2.5586 7.168 4.0977 3.0703 1.5352 7.168 2.5586 11.266 3.5859 8.1914 1.0234 14.336-1.5352 16.895-3.0703 0.51172 0 0.51172-0.51172 0.51172-1.0234s-0.51172-1.0234-0.51172-1.0234c-1.5352-1.0234-4.0977-3.0703-7.6797-5.1211-1.5352-1.0234-3.5859-2.0469-5.6328-2.5586-2.0469-0.51172-4.0977-1.0234-6.1445-1.5352-8.1914-1.0234-13.824 3.5859-15.871 5.1211-0.51172 0.51172-0.51172 0.51172-0.51172 1.0234-0.51172-0.51953 0-0.007812 0.51172 0.50391z"/>
 <path d="m435.2 130.56c0.51172 0.51172 0.51172 1.0234 1.0234 1.5352h1.5352c1.0234-1.0234 3.0703-3.0703 4.6094-6.1445 1.0234-1.5352 1.5352-3.5859 2.0469-5.6328 0.51172-2.0469 1.0234-4.6094 0.51172-7.168-0.51172-5.1211-2.0469-10.754-4.0977-15.871-2.0469-4.6094-4.6094-8.7031-6.1445-10.754v-0.51172c-0.51172-0.51172-1.0234-1.0234-1.5352-1.0234-0.51172 0-1.0234 0-1.5352 0.51172-1.5352 2.5586-5.6328 10.238-4.0977 19.969 0.51172 5.1211 2.0469 10.238 3.5859 14.848 0.51172 1.0234 1.0234 2.0469 1.0234 3.0703 0.51172 1.0234 0.51172 2.0469 1.0234 3.0703 1.0273 2.0547 1.5391 3.0781 2.0508 4.1016z"/>
 <path d="m391.68 123.39c1.5352 1.5352 4.0977 3.5859 7.6797 5.6328 3.0703 2.5586 7.168 4.6094 11.777 6.1445 2.0469 0.51172 4.0977 1.0234 6.1445 1.5352s4.0977 0.51172 5.6328 0.51172c3.5859 0 6.1445-0.51172 7.6797-1.0234 0.51172 0 0.51172-0.51172 0.51172-1.0234s0-1.0234-0.51172-1.5352v-0.51172c-0.51172-1.0234-1.5352-2.0469-3.0703-3.5859-0.51172-0.51172-1.0234-1.5352-2.0469-2.0469-1.0234-0.51172-1.5352-1.5352-2.5586-2.0469-3.5859-3.0703-7.6797-5.6328-12.289-7.168-9.2148-2.5586-16.383 0.51172-19.457 2.0469-0.51172 0-0.51172 0.51172-0.51172 1.0234 0.50781 1.0234 1.0195 1.5352 1.0195 2.0469z"/>
 <path d="m455.17 176.13c0 0.51172 0.51172 1.5352 1.0234 1.5352 0.51172 0.51172 1.0234 0.51172 1.5352 0 1.5352-1.0234 4.0977-2.5586 6.6562-5.6328 1.5352-1.5352 2.5586-3.5859 3.5859-5.6328 1.0234-2.0469 2.0469-4.6094 2.5586-7.6797 0.51172-3.0703 0.51172-6.1445 0.51172-9.2148 0-1.5352 0-3.0703-0.51172-4.6094 0-1.0234 0-1.5352-0.51172-2.0469 0-0.51172-0.51172-1.5352-0.51172-2.0469-1.5352-5.6328-3.0703-10.754-4.0977-13.312v-0.51172c-0.51172-0.51172-0.51172-1.0234-1.0234-1.5352-0.51172-0.51172-1.0234-0.51172-1.5352 0-2.5586 2.5586-8.7031 9.7266-9.7266 21.504-1.0234 11.262 1.5352 23.551 2.0469 29.184z"/>
 <path d="m410.62 156.16c1.0234 2.0469 3.5859 5.1211 6.6562 8.1914l1.0234 1.0234c0.51172 0.51172 1.0234 1.0234 1.0234 1.5352 1.0234 1.0234 1.5352 1.5352 2.5586 2.5586 2.0469 1.5352 4.0977 3.0703 6.1445 4.6094 2.5586 1.5352 4.6094 2.5586 6.6562 3.5859 2.0469 1.0234 4.0977 1.5352 6.1445 2.0469 3.5859 1.0234 6.6562 1.0234 8.7031 1.0234 0.51172 0 1.0234-0.51172 1.0234-1.0234v-1.5352-0.51172c-1.5352-4.6094-8.1914-15.871-17.406-21.504-9.7266-5.1211-18.434-3.5859-21.504-2.5586-0.51172 0-1.0234 0.51172-1.0234 1.0234-0.51172 0.51172-0.51172 1.0234 0 1.5352z"/>
 <path d="m463.87 225.79c0 1.0234 0 1.5352 0.51172 2.0469 0.51172 0.51172 1.0234 0.51172 1.5352 0.51172 2.0469-0.51172 5.1211-1.5352 8.7031-4.0977 2.0469-1.5352 3.5859-3.0703 5.6328-5.1211 1.0234-1.0234 2.0469-2.0469 2.5586-3.5859 1.0234-1.5352 1.5352-2.5586 2.0469-4.0977 1.5352-3.0703 2.5586-6.6562 3.0703-9.7266 0.51172-1.5352 0.51172-3.5859 1.0234-5.1211 0.51172-1.5352 0-3.5859 0.51172-5.1211 0-6.6562-0.51172-12.801-1.0234-15.871v-0.51172c0-0.51172-0.51172-1.5352-1.0234-1.5352-0.51172-0.51172-1.0234-0.51172-1.5352-0.51172-1.5312 1.0273-4.6016 3.0781-7.6758 6.1484-3.0703 3.5859-6.1445 8.1914-8.7031 14.336-4.6094 12.289-5.1211 26.625-5.6328 32.258z"/>
 <path d="m421.38 193.02c1.0234 2.0469 2.0469 6.1445 4.6094 10.238 0.51172 1.0234 1.5352 2.0469 2.0469 3.0703 0.51172 1.0234 1.5352 2.0469 2.0469 3.5859 1.5352 2.0469 3.0703 4.6094 5.1211 6.6562l3.0703 3.0703c1.0234 1.0234 2.0469 1.5352 3.0703 2.5586 2.0469 1.5352 4.0977 2.5586 6.1445 3.5859 3.5859 2.0469 7.168 3.0703 9.2148 3.0703 0.51172 0 1.0234 0 1.5352-0.51172 0.51172-0.51172 0.51172-1.0234 0.51172-1.5352v-0.51172c-0.51172-5.6328-4.0977-19.457-13.312-27.648-4.6094-4.0977-9.2148-6.1445-13.312-7.168s-7.6797-1.0234-9.7266-1.0234c-0.51172 0-1.0234 0.51172-1.0234 1.0234 0.003906 0.003906 0.003906 1.0273 0.003906 1.5391z"/>
 <path d="m458.24 281.6c-0.51172 1.0234-0.51172 1.5352 0 2.0469 0 0.51172 0.51172 1.0234 1.0234 1.0234 2.0469 0 6.1445 0 10.754-2.0469 4.6094-1.5352 10.238-4.6094 14.848-10.238 2.5586-3.0703 4.6094-6.1445 6.1445-9.7266 1.0234-1.5352 1.5352-3.5859 2.5586-5.1211 0.51172-2.0469 1.5352-3.5859 2.0469-5.6328 2.5586-7.168 3.0703-13.824 3.5859-17.406v-0.51172c0-1.0234 0-1.5352-0.51172-2.0469-0.51172-0.51172-1.0234-1.0234-1.5352-1.0234-4.0977 1.0234-14.336 5.6328-23.039 17.406-8.1914 12.285-13.312 27.645-15.875 33.277z"/>
 <path d="m423.43 234.5c0 2.5586 1.0234 7.168 2.0469 12.289 0.51172 1.5352 0.51172 2.5586 1.0234 4.0977 0.51172 1.5352 1.0234 2.5586 1.0234 4.0977 1.0234 3.0703 2.0469 5.6328 3.5859 8.7031 3.0703 5.6328 6.6562 9.7266 10.238 12.801 3.5859 3.0703 6.6562 5.1211 8.7031 6.1445 0.51172 0.51172 1.0234 0 1.5352-0.51172 0.51172-0.51172 0.51172-1.0234 1.0234-1.5352v-0.51172c0-1.5352 0.51172-3.5859 0.51172-6.1445 0-2.5586 0-5.6328-0.51172-8.7031-0.51172-6.1445-2.5586-12.801-6.1445-18.434-7.168-11.266-17.922-13.824-22.016-14.848-0.51172 0-1.0234 0-1.5352 0.51172 0.51562 1.0195 0.51562 1.5312 0.51562 2.043z"/>
 <path d="m435.71 337.41c-0.51172 0.51172-1.0234 1.5352-1.0234 2.0469s0.51172 1.0234 1.0234 1.5352c2.0469 0.51172 6.6562 1.5352 11.777 1.5352 5.1211 0 12.289-1.5352 18.945-6.1445 7.168-4.6094 13.312-11.266 17.922-18.434 4.6094-6.6562 7.6797-13.824 9.2148-17.406v-0.51172c0-1.0234 0.51172-1.5352 0-2.0469 0-1.0234-0.51172-1.0234-1.0234-1.0234-4.6094 0-16.895 2.0469-29.184 11.777-3.0703 2.5586-6.1445 5.1211-8.7031 8.1914-3.0703 2.5586-5.1211 5.6328-7.6797 8.1914-2.5586 2.5586-4.6094 5.1211-6.1445 7.6797-3.0742 1.0273-4.1016 3.0742-5.125 4.6094z"/>
 <path d="m414.21 277.5c-0.51172 2.5586-1.0234 7.6797-1.0234 13.312 0 5.6328 0 12.289 1.0234 18.945 1.5352 6.6562 3.5859 12.289 6.6562 16.895 2.5586 4.6094 5.6328 7.6797 7.168 9.2148 0.51172 0.51172 1.0234 0.51172 1.5352 0 0.51172 0 1.0234-0.51172 1.5352-1.5352v-0.51172c0.51172-1.5352 1.5352-3.5859 2.5586-6.1445 1.0234-2.5586 1.5352-5.6328 2.5586-9.2148 0.51172-3.0703 1.0234-7.168 1.0234-10.754 0-3.5859-0.51172-7.168-1.5352-10.754-4.0977-13.824-14.848-19.969-18.945-22.016-0.51172-0.51172-1.0234 0-1.5352 0-0.50781 1.5391-1.0195 2.0508-1.0195 2.5625z"/>
 <path d="m393.73 386.56c-0.51172 0.51172-1.5352 1.0234-1.5352 2.0469 0 0.51172 0 1.5352 0.51172 1.5352 2.0469 1.5352 6.1445 4.0977 11.266 5.6328 5.6328 1.5352 12.801 2.0469 22.016 0 8.7031-2.5586 17.406-7.6797 24.574-13.312 1.5352-1.5352 3.5859-3.0703 5.1211-4.0977l4.0977-4.0977c2.5586-2.5586 4.6094-5.1211 6.1445-6.6562 0 0 0-0.51172 0.51172-0.51172 0.51172-0.51172 1.0234-1.5352 1.0234-2.5586 0-1.0234 0-1.5352-1.0234-1.5352-2.5586-0.51172-7.168-1.5352-12.801-1.5352-3.0703 0-6.1445 0.51172-9.7266 1.0234-1.5352 0.51172-3.5859 0.51172-5.6328 1.5352-2.0469 0.51172-4.0977 1.0234-6.1445 2.0469-2.0469 0.51172-4.0977 1.5352-6.1445 2.5586-2.0469 1.0234-4.0977 2.0469-5.6328 2.5586-3.5859 2.0469-7.6797 4.0977-10.754 6.1445-3.0703 2.0469-6.6562 4.0977-9.2148 5.6328-3.0703 1.543-5.1172 2.5664-6.6562 3.5898z"/>
 <path d="m391.68 318.98c-0.51172 1.5352-1.5352 3.0703-2.5586 5.1211-0.51172 1.0234-1.0234 2.5586-1.5352 3.5859-0.51172 1.0234-1.0234 2.5586-1.5352 4.0977-2.0469 5.6328-4.0977 12.801-5.1211 19.969-1.0234 7.168 0 13.824 1.0234 19.457 1.0234 5.6328 3.0703 9.7266 4.0977 11.777 0.51172 0.51172 1.0234 1.0234 1.5352 0.51172 0.51172 0 1.0234-0.51172 2.0469-1.0234l0.51172-0.51172c1.0234-1.5352 3.0703-3.0703 4.6094-5.6328 1.5352-2.5586 3.5859-5.1211 5.6328-8.7031 1.5352-3.0703 3.5859-6.6562 4.6094-10.754 0.51172-2.0469 1.0234-3.5859 1.5352-5.6328s0.51172-4.0977 0.51172-5.6328c0.51172-15.359-8.7031-25.09-12.289-28.672-0.51562 0.50781-1.0273 0.50781-1.5391 0.50781-0.51172 0-1.0234 0.51172-1.5352 1.5352z"/>
 <path d="m335.87 421.38c-1.0234 0.51172-1.5352 1.0234-2.0469 1.5352-0.51172 0.51172-0.51172 1.5352 0 2.0469 1.5352 2.0469 4.6094 6.1445 9.7266 9.7266 5.1211 3.5859 12.289 6.6562 22.527 7.6797 5.1211 0 10.238 0 15.359-1.0234 2.5586-0.51172 5.1211-1.0234 7.6797-1.5352 2.5586-0.51172 4.6094-1.5352 7.168-2.5586 9.2148-3.5859 16.895-8.1914 20.992-10.754 0 0 0.51172 0 0.51172-0.51172 0.51172-0.51172 1.5352-1.5352 1.5352-2.0469 0.51172-1.0234 0-1.5352-0.51172-2.0469-2.5586-1.5352-6.6562-4.0977-12.801-6.1445-6.1445-2.0469-13.824-3.0703-23.551-3.0703-4.6094 0-9.2148 1.0234-13.824 1.5352-2.5586 0.51172-5.1172 0.51172-7.1641 1.0234s-4.0977 1.0234-6.1445 1.0234c-8.1914 2.0508-15.359 4.0977-19.457 5.1211z"/>
 <path d="m331.78 416.77h2.0469 0.51172c3.5859-2.0469 9.7266-5.6328 15.359-10.754 1.5352-1.5352 3.0703-2.5586 4.0977-4.0977 1.5352-1.5352 2.5586-3.0703 4.0977-5.1211 2.5586-3.0703 4.6094-7.168 6.1445-11.266 3.0703-7.6797 2.5586-14.848 1.5352-20.992-1.0234-5.6328-3.0703-10.238-4.6094-12.289-0.51172-0.51172-1.0234-1.0234-1.5352-1.0234s-1.5352 0-2.0469 1.0234c-2.0469 2.0469-5.6328 6.1445-9.7266 11.266-1.0234 1.0234-2.0469 2.5586-3.0703 4.0977-1.0234 1.5352-2.0469 3.0703-3.0703 4.6094-2.0469 3.0703-4.0977 6.1445-5.6328 10.238-3.0703 7.168-5.1211 14.336-5.6328 19.969-0.51172 6.1445-0.51172 10.754 0 13.824-0.007813 0.003906 0.50781 0.003906 1.5312 0.51562z"/>
 <path d="m266.75 434.69c-1.0234 0-2.0469 0-2.5586 0.51172-0.51172 0.51172-1.0234 1.0234-1.0234 2.0469 0.51172 3.0703 2.5586 7.6797 6.1445 13.312 4.0977 5.6328 10.238 11.777 19.969 15.871 5.1211 2.0469 10.238 3.5859 15.871 4.6094 2.5586 0.51172 5.6328 1.0234 8.1914 1.0234h8.1914c5.1211 0 10.238-1.0234 14.848-1.5352 4.0977-1.0234 8.1914-1.5352 10.754-2.0469h0.51172c1.0234-0.51172 2.0469-1.0234 2.5586-1.5352 0.51172-1.0234 1.0234-1.5352 0.51172-2.0469-2.0469-2.5586-5.6328-6.1445-11.266-10.238-2.5586-2.0469-6.1445-4.0977-9.7266-6.1445-3.5859-2.0469-8.1914-3.5859-12.801-5.1211-2.5586-1.0234-5.1211-1.5352-7.168-2.0469-2.5586-0.51172-5.1211-1.0234-7.168-1.5352-2.5586-0.51172-4.6094-1.0234-7.168-1.0234-2.5586-0.51172-4.6094-1.0234-7.168-1.0234-9.2188-2.0547-16.898-2.5664-21.504-3.0781z"/>
 <path d="m266.24 429.57c0.51562 0 0.51562 0 0 0 4.6094-0.51172 12.289-2.0469 19.969-5.1211 2.0469-1.0234 4.0977-1.5352 6.1445-2.5586 2.0469-1.0234 4.0977-2.0469 5.6328-3.5859 1.0234-0.51172 2.0469-1.0234 2.5586-2.0469 1.0234-0.51172 1.5352-1.5352 2.5586-2.0469 1.5352-1.5352 3.0703-3.0703 4.6094-4.6094 2.5586-3.5859 4.6094-7.168 6.1445-10.754 1.5352-3.5859 2.0469-7.168 2.5586-10.238 1.0234-6.1445 0-11.266-0.51172-14.336 0-0.51172-0.51172-1.0234-1.0234-1.5352h-2.0469c-1.5352 0.51172-3.5859 2.0469-5.6328 3.0703-2.5586 1.0234-5.1211 3.0703-7.6797 4.6094-3.0703 2.0469-5.6328 4.0977-9.2148 6.1445-3.0703 2.5586-6.1445 5.1211-9.2148 8.1914-5.6328 6.1445-10.238 12.289-12.801 17.922-3.0703 5.6328-4.6094 10.754-5.1211 13.824 0 0.51172 0 1.5352 1.0234 1.5352 0.51172 1.5352 1.5352 1.5352 2.0469 1.5352z"/>
 <path d="m316.41 45.055c1.5352 1.5352 4.0977 3.5859 7.168 5.6328 1.5352 1.0234 3.0703 2.0469 5.1211 3.0703 2.0469 1.0234 3.5859 2.0469 6.1445 3.0703 2.0469 1.0234 4.0977 1.5352 6.1445 2.0469 1.0234 0 2.0469 0.51172 3.0703 0.51172 1.0234 0.51172 2.0469 0.51172 2.5586 0.51172 3.5859 1.0234 6.6562 1.0234 9.2148 1.5352 0.51172 0 1.5352 0 1.5352-0.51172 0.51172-0.51172 0-1.0234-0.51172-1.5352-1.5352-1.5352-3.5859-4.0977-6.6562-6.6562-0.51172-0.51172-1.5352-1.5352-2.5586-2.0469-1.0234-0.51172-1.5352-1.0234-2.5586-1.5352-2.0469-1.0234-4.0977-2.0469-6.1445-3.0703s-4.6094-1.5352-6.6562-2.0469-4.0977-0.51172-6.1445-1.0234c-4.0977-0.51172-7.168 0-9.2148 0-0.51172 0-1.0234 0.51172-1.5352 1.0234 0.51172-0.51172 0.51172 0.51172 1.0234 1.0234z"/>
</svg>
