<?xml version="1.0" encoding="UTF-8"?>
<svg version="1.1" viewBox="0 0 512 512" xmlns="http://www.w3.org/2000/svg">
 <path d="m364.66 206.18h-217.32c-19.359 0.019531-35.059 15.719-35.082 35.082v80.859c0 77.879 63.359 141.24 141.24 141.24h5c77.879 0 141.24-63.359 141.24-141.24v-80.859c-0.019532-19.359-15.719-35.059-35.082-35.082zm-88.141 121.24-4.7188 53.602h-30.48l-4.6406-52.68c-11.461-8.2812-16.34-22.98-12.141-36.48 4.1992-13.5 16.559-22.82 30.699-23.16 14.141-0.32031 26.922 8.418 31.738 21.719 4.8203 13.301 0.62109 28.199-10.461 37z"/>
 <path d="m192.84 195.94v-48.16c0-34.879 28.281-63.16 63.16-63.16s63.16 28.281 63.16 63.16v48.16h35.98v-48.16c0-35.422-18.898-68.141-49.578-85.863-30.66-17.699-68.461-17.699-99.117 0-30.68 17.719-49.578 50.441-49.578 85.863v48.16z"/>
</svg>
