<?xml version="1.0" encoding="UTF-8"?>
<svg version="1.1" viewBox="0 0 512 512" xmlns="http://www.w3.org/2000/svg">
 <path d="m205.52 177.07c-0.48047 0.43359-0.96094 0.87891-1.4414 1.3359-0.48047 0.54297-1.0391 1.0977-1.6016 1.6641-0.078124 0.078126-0.16016 0.16797-0.23828 0.26563-8.5586 8.5352-20.719 19.434-36 26.055-8.7188 3.7539-21.602 5.0547-33.922 9.5117-14.398 5.2148-28.16 14.184-35.762 33.113-13.359 33.184-22.48 83.48-32.238 116.73l-1.6797 5.8398 5.1211 3.207s2.6406 1.6719 8 3.9688c-0.39844 2.6719-0.80078 5.3438-1.1992 7.9375-0.80078 4.8008-6.6406 20.586-7.9219 27.895-3.5156 19.809-2.6367 42.57-2.6367 65.402 0 4.4141 3.6016 8 8 8s8-3.5859 8-8c0-21.848-0.96094-43.641 2.3984-62.602 1.2812-7.3672 7.1211-23.266 7.9219-28.105 0.32031-1.6797 0.55859-3.3828 0.80078-5.1055 9.1992 2.6641 21.199 5.2227 36 6.6562-3.3594 7.8555-7.0391 19.215-7.7617 32.727-0.80078 16.055-0.16016 24.91-7.5195 54.48-1.1211 4.2891 1.5195 8.6328 5.8398 9.7031 4.2383 1.0703 8.5586-1.5352 9.6797-5.8164 7.7617-31.223 7.1211-40.574 8-57.52 0.80078-15.039 6-26.816 9.0391-32.527 0.16016 0.007813 0.39844 0.007813 0.55859 0.015625 3.6797 29.777 4 54.711 3.5195 87.961-0.078124 4.4141 3.4414 8.0547 7.8398 8.1289 4.3984 0.0625 8.0781-3.4648 8.1602-7.8711 0.55859-36.688 0.078126-63.496-4.5586-97.223-4.3203-31.258-12.559-42.609-15.922-79.633-0.48047-4.3984-4.3203-7.6406-8.7188-7.2383-4.3984 0.40625-7.6797 4.3047-7.2812 8.6953 3.1211 33.465 10.078 46.152 14.559 71.105-32-1.1758-52.16-8.1523-61.039-12.031 0.80078-2.9609 1.6016-6.0312 2.3984-9.1914 4.6406 1.5742 10.801 3.5195 18.16 5.3516 4.2383 1.0781 8.6406-1.5273 9.6797-5.8086 1.0391-4.2891-1.5195-8.6328-5.8398-9.7109-7.5195-1.8867-13.762-3.9102-18.078-5.4258 6.8789-28.414 14.16-60.559 23.602-84.031 6.8008-16.848 20.398-22.641 33.281-26.223 10.398-2.8945 20.559-4.5195 27.84-7.6797 10.078-4.3594 19.039-10.32 26.641-16.434 0.87891 2.4961 2 4.9766 3.5195 7.4336-7.7617 6.0898-16.719 11.969-26.879 16.344-7.5195 3.2812-18 5.0391-28.879 8.0391-10.719 2.9844-22.32 7.4648-28 21.512-1.6797 4.0977 0.32031 8.7539 4.3984 10.406 4.1602 1.6484 8.8008-0.34375 10.48-4.4414 3.3594-8.4414 10.961-10.273 17.441-12.062 11.602-3.2227 22.801-5.2578 30.961-8.7695 11.602-5.0312 21.922-11.785 30.801-18.777 10.48 9.7109 25.359 18.191 40.398 23.246 1.6797 0.55078 3.4414 0.55078 5.1211 0 15.121-5.0625 30-13.559 40.48-23.297 8.8008 7.0078 19.199 13.785 30.879 18.824 8.0781 3.5117 19.281 5.543 30.961 8.7695 6.3984 1.793 14.078 3.625 17.441 12.062 1.6797 4.0977 6.3203 6.0898 10.398 4.4414 4.0781-1.6562 6.0781-6.3125 4.3984-10.406-5.6016-14.047-17.281-18.527-28-21.512-10.801-3-21.281-4.7617-28.879-8.0391-10.16-4.3906-19.199-10.297-26.961-16.398 1.5195-2.4414 2.7188-4.9023 3.5195-7.375 7.6016 6.1133 16.559 12.07 26.641 16.434 7.2812 3.1602 17.441 4.7852 27.84 7.6797 12.879 3.5859 26.559 9.375 33.281 26.223 9.4414 23.473 16.719 55.617 23.602 84.031-4.2383 1.5117-10.559 3.5352-18.078 5.4258-4.3203 1.0781-6.8789 5.4258-5.8398 9.7109 1.0391 4.2812 5.4414 6.8867 9.6797 5.8086 7.3594-1.832 13.52-3.7773 18.16-5.3516 0.80078 3.1602 1.6016 6.2305 2.3984 9.1914-8.8789 3.8789-29.039 10.855-61.039 12.031 4.4805-24.953 11.441-37.641 14.559-71.105 0.39844-4.3906-2.8789-8.2891-7.2812-8.6953-4.3984-0.39844-8.2383 2.8398-8.7188 7.2383-3.3594 37.023-11.602 48.375-15.922 79.633-4.6406 33.727-5.1211 60.535-4.5586 97.223 0.078124 4.4062 3.7617 7.9375 8.1602 7.8711 4.3984-0.070313 7.9219-3.7109 7.8398-8.1289-0.48047-33.246-0.16016-58.184 3.5195-87.961 0.16016-0.007812 0.39844-0.007812 0.64062-0.015625 3.0391 5.7109 8.2383 17.488 9.0391 32.527 0.87891 16.945 0.16016 26.297 8 57.52 1.0391 4.2812 5.3594 6.8867 9.6797 5.8164 4.2383-1.0703 6.8789-5.4141 5.8398-9.7031-7.4414-29.566-6.7188-38.426-7.6016-54.48-0.71875-13.512-4.3203-24.871-7.7617-32.734 14.801-1.4141 26.719-3.9688 35.922-6.625 0.23828 1.7109 0.48047 3.4062 0.80078 5.0781 0.80078 4.8398 6.6406 20.734 7.9219 28.105 3.3594 18.961 2.4805 40.754 2.4805 62.602 0 4.4141 3.6016 8 8 8 4.3984 0 8-3.5859 8-8 0-22.832 0.80078-45.594-2.7188-65.398-1.2812-7.3125-7.1211-23.098-7.9219-27.895-0.39844-2.5742-0.80078-5.2383-1.1992-7.8945 5.3594-2.3203 8.0781-4.0078 8.0781-4.0078l5.1211-3.207-1.6797-5.8398c-9.7617-33.258-18.883-83.555-32.242-116.74-7.6016-18.926-21.363-27.895-35.762-33.113-12.32-4.457-25.199-5.7617-33.922-9.5117-15.281-6.625-27.441-17.52-35.922-26.055-0.078126-0.097657-0.23828-0.18359-0.32031-0.26563-0.55859-0.56641-1.1211-1.1211-1.6016-1.6641-0.48047-0.45703-0.96094-0.90234-1.4414-1.3359 3.5195-8.6328 4.1602-16.633 4.2383-22.223 2.6406-3.4258 7.1211-9.9609 8.9609-16.719 1.6016-5.6875 3.1992-13.32 2.0781-19.566-0.71875-3.8086-2.2383-7.2148-4.8008-9.9297 1.6094-7.9062 4.0898-23.289 3.0508-37.258-0.87891-11.086-4.1602-24.977-19.922-34.27-14.797-8.6641-41.277-13.105-60.078-13.105-10.16 0-17.52 5.0898-22.641 11.426-4.2383 5.2695-6.8008 11.383-8.0781 15.16-3.1211 1.8281-7.9219 4.9648-11.359 8.7656-3.3633 3.6094-5.6016 7.8164-5.9219 12.023-1.0391 13.969 1.4414 29.352 3.0391 37.266-2.5586 2.7031-4.0781 6.1133-4.8008 9.9219-1.1211 6.2461 0.48047 13.879 2.0781 19.566 1.8398 6.7617 6.3203 13.289 8.9609 16.727 0.078125 5.5859 0.71875 13.586 4.2383 22.215zm8.8789 13.895c-2.1602 4.8477-0.16016 9.9609 3.4414 14.902 7.6016 10.543 22.641 20.023 38.16 25.656 15.52-5.6328 30.559-15.113 38.16-25.656 3.6016-4.9453 5.6016-10.055 3.4414-14.902-6.3203 6.9375-15.039 12.785-22.719 17v0.007812c-11.762 6.4258-26 6.4258-37.762-0.007812-7.6797-4.2148-16.398-10.062-22.719-17zm85.602-78.363c-0.87891-9.5391-6.5586-18.273-10.398-23.105-19.043 6.2383-49.602 6.5039-49.602 6.5039-0.71875 0-1.4414-0.097656-2.1602-0.29688-3.4414-0.96094-7.1992-2.6797-10.398-4.3672-6.0781 10.863-15.84 23.895-16.961 25.414-0.80078 1.0547-1.8398 1.9375-3.1211 2.5195-1.4414 0.64844-1.4414 2.1758-1.5195 3.625-0.078125 3.7109 0.96094 7.7852 1.8398 10.977 1.8398 6.5859 7.5195 12.77 7.5195 12.77 1.3594 1.4727 2.0781 3.3828 2.0781 5.3594 0 5-0.23828 14.328 5.5195 23.84 4.7188 7.6875 14.16 13.801 22 18.09 6.9609 3.8164 15.441 3.8164 22.398 0.007812 7.8398-4.2969 17.281-10.406 22-18.098 5.7617-9.5117 5.5195-18.84 5.5195-23.84 0-1.9766 0.71875-3.8867 2.0781-5.3594 0 0 5.6797-6.1836 7.5195-12.77 0.87891-3.1914 1.9219-7.2656 1.8398-10.977-0.074219-1.4453-0.074219-2.9727-1.5117-3.6211-2.6406-1.2422-4.4023-3.832-4.6406-6.6719zm4.1602-30.078c0.16016-3.293 0.16016-6.6367-0.16016-9.8984-0.55859-6.9531-2.1602-15.898-12.078-21.73-12.723-7.4805-35.684-10.895-51.922-10.895-6 0-9.6797 4.2812-12.078 8.1914-2.9609 4.8164-4.1602 9.6172-4.1602 9.6172-0.48047 2.3516-2.082 4.3281-4.2422 5.3828 0 0-4.5586 2.2148-8.3203 5.5117-1.4414 1.2227-3.1211 2.3516-3.1992 3.9219-0.55859 6.4961-0.16016 13.344 0.55859 19.383 3.3594-5.1602 6.5586-10.594 7.8398-14.457 0.71875-2.4062 2.6406-4.3047 5.0391-5.1211 2.3984-0.81641 5.0391-0.45703 7.1211 0.96875 0 0 6.5586 4.625 12.641 6.5938 6-0.054688 33.52-0.67188 47.359-7.2227 3.1211-1.4648 6.8008-0.79297 9.1992 1.6719 0 0 2.8789 3.0625 6.3984 8.0781zm-84.137 176.19c8.1523 4.6719 16.93 8.6562 25.809 11.633 6.6016 2.207 13.734 2.207 20.336 0 8.8789-2.9766 17.656-6.9609 25.809-11.633 3.832-2.1914 5.1602-7.0898 2.9688-10.922-2.1992-3.832-7.0898-5.1602-10.922-2.9609-7.2383 4.1445-15.047 7.6953-22.938 10.336-3.3047 1.1133-6.8711 1.1133-10.176 0-7.8867-2.6406-15.695-6.1914-22.938-10.336-3.832-2.1992-8.7188-0.87109-10.922 2.9609-2.1914 3.832-0.86328 8.7266 2.9688 10.922zm98.168 93.078c1.1914 0.28125 2.4258 0.28125 3.6172 0 4.9219-1.1367 11.656-4.6406 16.23-9.6406 3.6719-4.0117 5.9609-8.9102 5.9609-14.148v-24c0-2.3594-1.0391-4.5938-2.8398-6.1133 0 0-6.207-5.9219-21.16-5.8867-14.953-0.03125-21.16 5.8867-21.16 5.8867-1.8008 1.5195-2.8398 3.7539-2.8398 6.1133v24c0 5.2383 2.2891 10.137 5.9609 14.152 4.5742 5 11.312 8.5039 16.23 9.6406zm9.8086-42.691v18.902c0 1.8242-1.4883 3.2305-2.9375 4.4805-1.5664 1.3594-3.3906 2.457-5.0547 3.1367h-0.007812c-1.6719-0.67969-3.4961-1.7773-5.0625-3.1367-1.4492-1.25-2.9375-2.6562-2.9375-4.4805v-18.902c1.8789-0.55859 4.5859-1.1055 7.9844-1.0977h0.03125c3.3984-0.007812 6.1055 0.53516 7.9844 1.0977z" fill-rule="evenodd"/>
</svg>
