<?xml version="1.0" encoding="UTF-8"?>
<svg version="1.1" viewBox="0 0 512 512" xmlns="http://www.w3.org/2000/svg">
 <path d="m442.23 82.738c-2.0039-2.2773-50.5-55.809-186.23-55.809s-184.22 53.531-186.23 55.809c-1.6328 1.8633-2.5391 4.2656-2.5391 6.75v259.73c0 2.2227 0.72656 4.3789 2.0547 6.1523 1.8125 2.4062 45.82 59.68 181.83 133.51 1.5273 0.82422 3.207 1.2383 4.8828 1.2383 1.6797 0 3.3594-0.41406 4.8828-1.2383 136-73.832 180.02-131.1 181.83-133.51 1.332-1.7773 2.0547-3.9375 2.0547-6.1523v-259.73c0-2.4883-0.90625-4.8906-2.5391-6.7539zm-186.23 385.48c-112.19-61.598-158.47-111.21-168.29-122.66v-251.74c11.137-9.9375 59.414-46.402 168.29-46.402 13.621 0 26.293 0.56641 38.062 1.5938 82.391 7.1289 120.55 36.168 130.23 44.809v251.76c-1.2188 1.4297-3 3.457-5.4062 6.0195-16.855 17.953-64.273 62.492-162.88 116.62zm147.8-130.5v-72.734h-295.61v72.688c14.93 15.797 58.414 56.855 147.8 107.12 89.82-50.484 133.01-91.355 147.8-107.07zm-151.95 35.887-28.336 20.586c-2.2734 1.6523-3.4297 0.82031-2.5586-1.8594l10.824-33.305c0.87109-2.6797-0.28516-6.2266-2.5586-7.8789l-28.336-20.586c-2.2734-1.6523-1.832-3.0117 0.97266-3.0117h35.02c2.8203 0 5.8359-2.1914 6.707-4.8672l10.824-33.305c0.87109-2.6797 2.2891-2.6797 3.1602 0l10.824 33.305c0.87109 2.6797 3.8867 4.8672 6.7031 4.8672h35.02c2.8164 0 3.2578 1.3555 0.97656 3.0117l-28.336 20.586c-2.2734 1.6523-3.4297 5.2031-2.5586 7.8789l10.824 33.305c0.87109 2.6797-0.28516 3.5156-2.5586 1.8594l-28.336-20.586c-2.2734-1.6523-6-1.6523-8.2773 0zm114.09-288.87c10.777 32.867 6.8203 70.176-14.059 101.04-22.371 33.082-58.848 50.914-95.988 50.914-22.316 0-44.883-6.4453-64.758-19.887-43.859-29.672-60.891-84.125-45.117-132.04 12.969-4.7109 29.035-9.082 48.488-12.211 1.7812 6.2461 3.625 12.605 5.5664 19.102 1.7617 5.8789-0.77734 13.902-5.5586 17.633-6.3125 4.957-12.391 9.8164-18.16 14.531-4.3984 3.5703-11.281 3.3906-15.242-0.16016-0.082031-0.078126-0.16016-0.14453-0.24219-0.21484 0.44531 15.848 4.8281 31.426 12.84 45.262 2.4883-3.9883 7.5312-6.5742 12.402-5.8984 7.1523 1.0078 14.598 1.9648 22.211 2.8633 6.0508 0.70703 12.41 6.0859 14.004 11.801 2.0273 7.2031 4.0664 14.141 6.1016 20.684 1.3984 4.5781-0.53906 9.7344-4.2617 12.535 10.133 3.6055 20.816 5.5234 31.73 5.5234 9.1094 0 18.023-1.332 26.547-3.7891-0.29297-0.17578-0.5625-0.33203-0.85547-0.51172-4.5586-2.6836-6.7891-8.9023-4.7578-14.02 2.7031-6.7227 5.4375-13.863 8.1758-21.293 2.0586-5.6133 8.8203-10.516 14.883-10.738 8.0117-0.29687 15.832-0.66016 23.336-1.1055 5.4023-0.31641 10.691 3.4492 12.402 8.3828 11.133-16.961 16.094-36.219 15.477-55.156-3.5703 3.8906-10.234 4.7617-14.836 1.6641-5.7812-3.9062-11.879-7.9375-18.23-12.039-5.0234-3.2422-8.2578-10.973-7.0586-17.004 1.25-6.2969 2.418-12.477 3.5312-18.551 20.805 3.1484 37.793 7.7461 51.43 12.688zm-80.207 16.762c5.1562 3.7773 7.7656 11.828 5.8477 17.926-2.543 8.0703-5.1602 16.16-7.8047 24.145-2.0078 6.043-8.8203 10.996-15.191 11.074-8.4258 0.097656-16.922 0.13281-25.355 0.10938-6.3789-0.019532-13.242-4.9258-15.289-10.957-2.707-7.9727-5.3906-16.051-8.0039-24.109-1.9766-6.0938 0.58203-14.172 5.7227-17.992 6.793-5.043 13.68-10.098 20.551-15.066 5.2031-3.7578 13.688-3.7852 18.906-0.0625 6.9023 4.9375 13.809 9.9414 20.617 14.934z"/>
</svg>
