<svg version="1.1" id="Layer_1" xmlns:x="ns_extend;" xmlns:i="ns_ai;" xmlns:graph="ns_graphs;" xmlns="http://www.w3.org/2000/svg" xmlns:xlink="http://www.w3.org/1999/xlink" x="0px" y="0px" viewBox="0 0 48.2 48.2" style="enable-background:new 0 0 48.2 48.2;" xml:space="preserve">
 <metadata>
  <sfw xmlns="ns_sfw;">
   <slices>
   </slices>
   <sliceSourceBounds bottomLeftOrigin="true" height="48.2" width="48.2" x="89.6" y="-235.7">
   </sliceSourceBounds>
  </sfw>
 </metadata>
 <g>
  <g>
   <path d="M22.2,13.7c1.3,1.7,3,3,5,3.8c1.9,0.8,4.1,1.2,6.2,1.1c0.1,0,0.2,0,0.2,0c0.1,0,0.1,0.1,0.2,0.2c0,0.1,0.1,0.2,0.1,0.2
			c0,0.1,0,0.2-0.1,0.2c-1.2,1.8-1.9,3.8-2.1,5.9c-0.2,2.1,0.1,4.2,0.9,6.2c0,0.1,0,0.2,0,0.2c0,0.1-0.1,0.2-0.1,0.2
			c-0.1,0.1-0.1,0.1-0.2,0.1c-0.1,0-0.2,0-0.2,0c-2-0.6-4.2-0.6-6.3-0.2c-2.1,0.5-4,1.4-5.6,2.8c-0.1,0.1-0.1,0.1-0.2,0.1
			c-0.1,0-0.2,0-0.2,0c-0.1,0-0.1-0.1-0.2-0.2c0-0.1-0.1-0.1-0.1-0.2c-0.1-2.1-0.7-4.2-1.8-6c-1.1-1.8-2.6-3.4-4.4-4.5
			c-0.1,0-0.1-0.1-0.2-0.2c0-0.1-0.1-0.2,0-0.2c0-0.1,0-0.2,0.1-0.2c0.1-0.1,0.1-0.1,0.2-0.1c2-0.8,3.8-2,5.2-3.6
			c1.4-1.6,2.4-3.5,2.9-5.6c0-0.1,0.1-0.2,0.1-0.2c0.1-0.1,0.1-0.1,0.2-0.1c0.1,0,0.2,0,0.2,0C22.1,13.6,22.2,13.7,22.2,13.7z">
   </path>
   <path d="M24.1,5.1c3.8,0,7.4,1.1,10.5,3.2s5.6,5.1,7,8.5c1.4,3.5,1.8,7.3,1.1,11c-0.7,3.7-2.5,7.1-5.2,9.7c-2.7,2.7-6,4.5-9.7,5.2
			c-3.7,0.7-7.5,0.4-11-1.1c-3.5-1.4-6.4-3.9-8.5-7c-2.1-3.1-3.2-6.8-3.2-10.5c0-5,2-9.9,5.6-13.4C14.2,7.1,19.1,5.1,24.1,5.1z
			 M24.1,0c-4.8,0-9.4,1.4-13.4,4.1c-4,2.6-7,6.4-8.9,10.8C0,19.3-0.5,24.1,0.5,28.8s3.2,9,6.6,12.3c3.4,3.4,7.7,5.7,12.3,6.6
			c4.7,0.9,9.5,0.5,13.9-1.4c4.4-1.8,8.2-4.9,10.8-8.9c2.6-4,4.1-8.6,4.1-13.4c0-6.4-2.5-12.5-7.1-17C36.6,2.5,30.5,0,24.1,0z">
   </path>
  </g>
 </g>
</svg>